<svg width="991" height="489" viewBox="0 0 991 489" fill="none" xmlns="http://www.w3.org/2000/svg">
<path d="M489.743 488.702C211.915 482.152 -3.1915 369.787 0.0298195 232.798C3.25114 95.809 223.415 -6.25128 501.248 0.298155C779.081 6.84759 994.183 119.213 990.962 256.15C987.74 393.086 767.572 495.251 489.743 488.702ZM500.495 32.1612C249.227 26.2396 34.5962 118.476 31.8874 233.562C29.1786 348.647 239.255 450.917 490.496 456.839C741.738 462.76 956.395 370.488 959.104 255.402C961.813 140.316 751.763 38.0829 500.495 32.1612Z" fill="none"/>
<path d="M360.908 173.659C360.16 205.324 339.106 230.292 288.742 248.659C248.998 263.51 241.405 269.85 237.149 279.685L338.819 282.081L325.923 330.208L150.424 326.075C161.704 268.637 188.076 242.214 240.37 220.17C276.73 204.576 298.416 194.851 298.819 176.882C299.054 166.943 293.297 160.608 282.085 160.346C268.447 160.022 257.988 169.705 253.208 188.845L190.57 187.37C202.854 139.835 238.236 113.982 287.241 115.138C335.885 116.284 361.692 140.169 360.908 173.659Z" fill="none"/>
<path d="M440.975 172.137L429.032 203.838H429.638C441.271 196.38 454.88 192.601 468.691 192.994C505.297 193.852 527.36 218.26 526.513 254.246C525.655 290.54 490.707 339.017 423.08 337.421C375.66 336.307 347.254 316.13 348.07 281.971C348.145 277.695 348.671 273.44 349.639 269.275L411.304 270.75C410.65 272.618 410.614 274.145 410.566 276.028C410.321 286.564 418.573 292.972 431.291 293.291C453.882 293.814 464.273 274.203 464.67 257.458C465.005 243.203 457.14 235.534 444.113 235.225C431.699 234.932 421.888 242.8 417.004 253.534L358.487 248.423L404.568 122.875L550.302 126.312L537.103 174.387L440.975 172.137Z" fill="none"/>
<path d="M507.87 334.497L645.168 116.749L692.594 117.864L555.296 335.617L507.87 334.497Z" fill="none"/>
<path d="M838.714 184.922C838.191 207.877 820.553 231.705 787.189 236.826V237.438C805.968 244.401 817.064 261.721 816.552 283.404C815.872 312.27 787.435 346.027 722.658 344.499C671.77 343.301 643.171 320.624 644.075 282.771C644.666 257.662 664.47 231.453 701.855 226.735V226.123C684.598 218.585 675.358 203.446 675.802 184.509C676.446 157.228 706.985 125.046 764.383 126.396C811.5 127.494 839.53 150.208 838.714 184.922ZM705.197 280.171C704.909 292.287 713.125 300.223 727.683 300.573C745.95 301.007 758.061 288.254 758.375 274.94C758.668 262.521 750.442 255.198 735.58 254.847C714.228 254.308 705.464 269.636 705.197 280.171ZM730.23 192.973C729.953 204.733 737.52 212.041 751.822 212.375C769.477 212.794 780.296 200.977 780.584 189.17C780.872 177.363 773.294 170.05 759.353 169.72C740.108 169.255 730.486 182.066 730.23 192.973Z" fill="none"/>
</svg>
