<svg width="517" height="78" viewBox="0 0 517 78" fill="none" xmlns="http://www.w3.org/2000/svg">
<g clip-path="url(#clip0)">
<path d="M31.5835 37.1855C35.5855 34.2651 37.5325 29.1814 37.5325 21.9345C37.5325 11.8754 32.1243 2.03258 16.9815 2.03258H0V76.4485H18.2795C33.5304 76.4485 39.912 66.4975 39.912 55.5731C39.912 46.0548 36.7753 40.5385 31.5835 37.1855ZM16.6571 12.6325C26.4999 12.6325 26.608 19.9876 26.608 22.6917C26.608 25.3957 26.4999 33.6161 16.6571 33.6161H10.5999V12.6325H16.6571ZM28.5549 55.3568C28.5549 58.4935 27.3652 65.8486 18.2795 65.8486H10.5999V43.9997H17.6305C28.3386 43.9997 28.5549 52.3282 28.5549 55.3568Z" fill="black"/>
<path d="M87.6582 76.4485V65.0914H59.6441V44.865H84.3052V33.6161H59.6441V13.2815H87.6582V2.03258H47.7462V76.4485H87.6582Z" fill="black"/>
<path d="M135.188 76.4485V2.03258H123.939V45.6221L106.633 2.03258H95.2761V76.4485H106.633V33.6161L123.939 76.4485H135.188Z" fill="black"/>
<path d="M190.552 76.4485H201.477V53.518L206.777 44.216L218.458 76.4485H230.464L214.024 31.3447L230.464 2.03258H219.107L201.477 33.3998V2.03258H190.552V76.4485Z" fill="black"/>
<path d="M278.102 23.3406C278.102 12.6325 271.721 2.03258 256.47 2.03258H238.19V76.4485H249.547V46.3793C251.711 46.3793 254.09 46.2711 257.011 46.3793L265.988 76.4485H278.102L268.151 43.567C274.533 39.9977 278.102 32.9671 278.102 23.3406ZM249.547 35.2385V12.957H256.47C265.447 12.957 266.853 20.4202 266.853 23.557C266.853 27.0182 266.204 35.2385 255.821 35.2385H249.547Z" fill="black"/>
<path d="M285.936 2.03258V55.8976C285.936 68.6608 292.318 77.8546 305.838 77.8546C319.359 77.8546 325.74 68.7689 325.74 55.8976V2.03258H314.167V55.8976C314.167 59.0343 313.951 66.4975 305.838 66.4975C297.726 66.4975 297.51 59.0343 297.51 55.8976V2.03258H285.936Z" fill="black"/>
<path d="M373.487 76.4485V65.0914H345.472V44.865H370.134V33.6161H345.472V13.2815H373.487V2.03258H333.575V76.4485H373.487Z" fill="black"/>
<path d="M409.768 55.8976C409.768 59.0343 409.659 66.822 401.115 66.822C392.57 66.822 392.461 59.0343 392.461 55.8976V22.5835C392.461 19.3386 392.57 11.5509 401.115 11.5509C409.659 11.5509 409.768 19.3386 409.768 22.5835V23.8814H421.125V22.5835C421.125 12.4162 417.88 0.626465 401.115 0.626465C387.702 0.626465 381.213 9.71213 381.213 22.5835V55.8976C381.213 65.9567 385.106 77.8546 401.115 77.8546C414.527 77.8546 421.125 68.7689 421.125 55.8976V33.8324H401.115V44.865H409.768V55.8976Z" fill="black"/>
<path d="M468.763 76.4485V65.0914H440.749V44.865H465.41V33.6161H440.749V13.2815H468.763V2.03258H428.851V76.4485H468.763Z" fill="black"/>
<path d="M516.293 23.3406C516.293 12.6325 509.911 2.03258 494.66 2.03258H476.381V76.4485H487.738V46.3793C489.901 46.3793 492.28 46.2711 495.201 46.3793L504.178 76.4485H516.293L506.342 43.567C512.723 39.9977 516.293 32.9671 516.293 23.3406ZM487.738 35.2385V12.957H494.66C503.638 12.957 505.044 20.4202 505.044 23.557C505.044 27.0182 504.395 35.2385 494.011 35.2385H487.738Z" fill="black"/>
</g>
<defs>
<clipPath id="clip0">
<rect width="516.293" height="77.2281" fill="white" transform="translate(0 0.626465)"/>
</clipPath>
</defs>
</svg>
