<svg width="646" height="169" viewBox="0 0 646 169" fill="none" xmlns="http://www.w3.org/2000/svg">
<g clip-path="url(#clip0)">
<path d="M98.6671 72.2326H75.9313V43.296H27.0872V72.2326H4.67771V0.108782H27.0872V27.6311H75.9313V0.108782H98.6671V72.2326Z" fill="white"/>
<path d="M209.297 49.6055C209.297 57.0028 205.598 62.8046 198.201 67.011C191.892 70.5646 184.458 72.3414 175.9 72.3414C175.32 72.4139 174.015 72.4502 171.984 72.4502C170.026 72.5227 168.358 72.559 166.98 72.559C158.93 72.559 153.636 72.5227 151.098 72.4502C148.632 72.4502 146.456 72.3776 144.571 72.2326C136.376 72.2326 129.413 70.2745 123.684 66.3583C117.447 62.1519 114.329 56.5677 114.329 49.6055V21.7568C114.329 15.4473 117.592 10.1169 124.119 5.76556C129.921 1.92185 136.339 0 143.374 0H176.879C185.582 0 192.979 1.81307 199.071 5.4392C205.889 9.50047 209.297 14.9397 209.297 21.7568V49.6055ZM186.452 42.9697V29.8068C186.452 24.8028 185.183 20.9953 182.645 18.3845C179.817 15.4111 175.356 13.9244 169.265 13.9244H151.206C146.347 13.9244 142.721 15.266 140.328 17.9494C138.007 20.6327 136.847 24.4039 136.847 29.2629V42.9697C136.847 47.6837 138.007 51.3461 140.328 53.9569C142.649 56.5677 146.275 57.8731 151.206 57.8731H169.265C175.429 57.8731 179.817 56.6402 182.427 54.1744C185.111 51.7087 186.452 47.9738 186.452 42.9697Z" fill="white"/>
<path d="M296.401 72.2326H223.624V0.108782H246.36V56.1326H296.401V72.2326Z" fill="white"/>
<path d="M379.795 72.2326H307.018V0.108782H329.754V56.1326H379.795V72.2326Z" fill="white"/>
<path d="M481.682 49.6055C481.682 57.0028 477.983 62.8046 470.586 67.011C464.277 70.5646 456.843 72.3414 448.285 72.3414C447.705 72.4139 446.4 72.4502 444.369 72.4502C442.411 72.5227 440.743 72.559 439.365 72.559C431.315 72.559 426.021 72.5227 423.483 72.4502C421.017 72.4502 418.841 72.3776 416.956 72.2326C408.761 72.2326 401.798 70.2745 396.069 66.3583C389.832 62.1519 386.714 56.5677 386.714 49.6055V21.7568C386.714 15.4473 389.977 10.1169 396.504 5.76556C402.306 1.92185 408.724 0 415.759 0H449.264C457.967 0 465.364 1.81307 471.456 5.4392C478.274 9.50047 481.682 14.9397 481.682 21.7568V49.6055ZM458.837 42.9697V29.8068C458.837 24.8028 457.568 20.9953 455.03 18.3845C452.202 15.4111 447.741 13.9244 441.65 13.9244H423.591C418.732 13.9244 415.106 15.266 412.713 17.9494C410.392 20.6327 409.232 24.4039 409.232 29.2629V42.9697C409.232 47.6837 410.392 51.3461 412.713 53.9569C415.034 56.5677 418.66 57.8731 423.591 57.8731H441.65C447.814 57.8731 452.202 56.6402 454.812 54.1744C457.496 51.7087 458.837 47.9738 458.837 42.9697Z" fill="white"/>
<path d="M636.341 0.108782L606.316 72.2326H579.664L557.907 21.4305L541.046 72.2326H514.829L485.675 0.108782H508.628L527.992 52.6515L545.832 0.108782H571.179L593.262 52.6515L613.17 0.108782H636.341Z" fill="white"/>
<path d="M89.2029 145.497C89.2029 153.039 87.0998 158.587 82.8934 162.141C79.3398 165.187 73.7918 167.109 66.2495 167.906C62.2607 168.341 54.5733 168.559 43.1873 168.559C32.8165 168.559 25.3104 168.233 20.669 167.58C13.9244 166.637 8.88403 164.715 5.54799 161.814C1.84933 158.623 0 153.837 0 147.455C0 147.092 0.0362612 146.512 0.108784 145.714C0.253829 144.844 0.326352 144.264 0.326352 143.974H21.7568C21.7568 147.963 22.337 150.61 23.4974 151.915C25.0929 153.728 28.5739 154.635 33.9406 154.635L49.6055 154.743C55.2623 154.743 58.8522 154.635 60.3751 154.417C64.799 153.764 67.011 151.153 67.011 146.585C67.011 142.886 65.488 140.384 62.442 139.078C60.2664 138.136 56.3501 137.664 50.6934 137.664C49.1704 137.664 47.6111 137.701 46.0156 137.773C44.4201 137.773 42.8246 137.773 41.2291 137.773C26.4345 137.773 16.4264 136.685 11.2048 134.51C4.02501 131.536 0.435136 125.408 0.435136 116.125C0.435136 108.22 3.48109 102.853 9.57299 100.025C15.7374 97.1241 27.2685 95.6736 44.1663 95.6736C53.5217 95.6736 60.5927 96.0363 65.3792 96.7615C72.1963 97.7768 77.3092 99.6624 80.7178 102.418C84.7065 105.609 86.7009 110.142 86.7009 116.016V119.715H64.9441C64.9441 115.509 63.6024 112.934 60.9191 111.991C58.3082 110.976 52.3976 110.468 43.1873 110.468C35.3548 110.468 29.9881 110.976 27.0872 111.991C24.2588 113.007 22.8446 114.82 22.8446 117.43C22.8446 120.549 23.7874 122.58 25.673 123.522C27.5586 124.393 31.221 124.828 36.6602 124.828H47.3211C56.4589 124.828 63.3123 125.154 67.8812 125.807C74.7709 126.822 79.8837 128.671 83.2198 131.355C87.2085 134.618 89.2029 139.332 89.2029 145.497Z" fill="white"/>
<path d="M124.787 168.233H103.574V96.1088H124.787V168.233Z" fill="white"/>
<path d="M235.967 168.233H199.851L161.994 111.774V168.233H140.672V96.1088H176.462L213.666 152.459V96.1088H235.967V168.233Z" fill="white"/>
<path d="M347.709 168.233H324.755L317.793 154.743H272.321L265.685 168.233H242.079L278.848 96.1088H310.287L347.709 168.233ZM310.94 139.187L294.948 109.272L279.283 139.187H310.94Z" fill="white"/>
<path d="M433.317 112.209H401.444V168.233H378.708V112.209H347.378V96.1088H433.317V112.209Z" fill="white"/>
<path d="M533.276 118.518C533.276 123.232 531.681 127.294 528.49 130.702C524.936 134.473 519.932 136.685 513.478 137.338C519.715 137.338 524.356 138.607 527.402 141.145C530.448 143.684 531.971 147.274 531.971 151.915V168.233H509.235V154.199C509.235 151.081 507.93 148.942 505.319 147.781C502.708 146.548 498.828 145.932 493.679 145.932H465.395V168.233H443.421V96.1088H497.051C510.178 96.1088 519.497 97.7405 525.009 101.004C530.52 104.195 533.276 110.033 533.276 118.518ZM510.105 121.238C510.105 117.829 509.416 115.581 508.038 114.493C506.008 112.898 501.656 112.1 494.984 112.1H465.395V130.376H493.679C499.916 130.376 504.195 129.796 506.515 128.635C508.909 127.402 510.105 124.937 510.105 121.238Z" fill="white"/>
<path d="M645.059 168.233H622.105L615.143 154.743H569.671L563.036 168.233H539.429L576.198 96.1088H607.637L645.059 168.233ZM608.29 139.187L592.298 109.272L576.634 139.187H608.29Z" fill="white"/>
</g>
<defs>
<clipPath id="clip0">
<rect width="645.059" height="168.559" fill="white"/>
</clipPath>
</defs>
</svg>
