<svg width="1112" height="96" viewBox="0 0 1112 96" fill="none" xmlns="http://www.w3.org/2000/svg">
<g clip-path="url(#clip0)">
<path d="M35.259 10.7325C35.259 11.2956 34.5201 11.5771 33.0421 11.5771C30.3678 11.5771 28.7139 11.6826 28.0805 11.8938C27.4471 12.0345 27.0601 12.316 26.9193 12.7383C26.8489 13.1606 26.8137 14.5329 26.8137 16.8554V50.742C26.8137 50.742 26.8489 54.0146 26.9193 60.5597C26.9897 65.4157 26.9897 69.392 26.9193 72.4886C26.7786 76.852 26.4619 80.1245 25.9692 82.3062C25.1247 85.9659 23.0486 89.0976 19.7408 91.7016C16.4331 94.3759 12.9142 95.7131 9.18424 95.7131C6.43952 95.7131 4.22264 94.9741 2.53358 93.4962C0.844528 92.0887 0 90.2237 0 87.9012C0 83.8897 1.97056 81.884 5.91169 81.884C7.53037 81.884 8.86754 82.3766 9.9232 83.3619C11.0492 84.3472 11.6123 85.614 11.6123 87.1623C11.6123 88.4994 11.1548 89.6959 10.2399 90.7515C9.6065 91.5257 9.2898 92.1239 9.2898 92.5461C9.2898 93.1795 9.81763 93.4962 10.8733 93.4962C13.1254 93.4962 14.7089 92.1239 15.6238 89.3792C16.1164 87.9012 16.3627 83.573 16.3627 76.3945V16.1164C16.3627 13.8643 15.6941 12.4568 14.357 11.8938C13.7236 11.6826 12.0345 11.5771 9.2898 11.5771C8.02301 11.5771 7.21367 11.5067 6.86178 11.3659C6.58028 11.2252 6.43952 11.014 6.43952 10.7325C6.43952 10.0288 7.00254 9.67688 8.12858 9.67688C8.33971 9.67688 9.2898 9.71207 10.9789 9.78245C13.1606 9.85282 14.9552 9.88801 16.3627 9.88801L31.8809 9.67688C34.133 9.67688 35.259 10.0288 35.259 10.7325Z" fill="#782D36"/>
<path d="M108.641 46.8361C108.641 57.3223 105.474 66.1898 99.1396 73.4387C92.876 80.6876 85.1697 84.312 76.0207 84.312C66.3086 84.312 58.1448 80.6524 51.5294 73.3331C44.9139 65.9435 41.6062 56.8648 41.6062 46.0971C41.6062 35.1183 44.7731 26.1452 51.1071 19.1778C57.5114 12.1401 65.6752 8.62122 75.5984 8.62122C84.9586 8.62122 92.8056 12.2808 99.1396 19.6001C105.474 26.9193 108.641 35.998 108.641 46.8361ZM96.8171 47.3639C96.8171 34.4849 94.178 24.4561 88.8997 17.2776C85.592 12.7735 80.9823 10.5214 75.0706 10.5214C69.4404 10.5214 65.077 12.2456 61.9804 15.6941C56.2798 22.0281 53.4296 32.3384 53.4296 46.6249C53.4296 57.9557 55.4001 66.7529 59.3412 73.0164C63.3527 79.28 68.9477 82.4118 76.1262 82.4118C82.8121 82.4118 87.844 79.456 91.2222 73.5443C94.9522 66.9992 96.8171 58.2724 96.8171 47.3639Z" fill="#782D36"/>
<path d="M162.556 62.4598C162.556 68.5123 160.233 73.685 155.588 77.978C151.014 82.2007 145.489 84.312 139.015 84.312C135.214 84.312 130.675 83.1508 125.397 80.8283C123.989 80.1949 122.933 79.8782 122.23 79.8782C121.385 79.8782 120.857 80.8987 120.646 82.9396C120.576 83.9953 120.118 84.5231 119.274 84.5231C118.57 84.5231 118.218 84.1009 118.218 83.2563C118.218 82.6933 118.253 82.271 118.324 81.9895C118.887 77.6965 119.168 73.7202 119.168 70.0606C119.168 69.3568 119.098 67.3863 118.957 64.1489C118.887 63.7266 118.852 63.1636 118.852 62.4598C118.852 61.4042 119.274 60.8764 120.118 60.8764C120.822 60.8764 121.315 61.7209 121.596 63.4099C123.426 75.9371 129.373 82.2007 139.437 82.2007C143.73 82.2007 147.038 81.0043 149.36 78.6114C151.753 76.1482 152.949 72.6997 152.949 68.266C152.949 64.3248 151.788 60.9819 149.466 58.2372C147.214 55.4221 143.308 52.6422 137.748 49.8975C131.062 46.5898 126.417 43.3876 123.813 40.291C121.209 37.1944 119.907 33.3588 119.907 28.7843C119.907 22.943 121.772 18.1222 125.502 14.3218C129.303 10.5214 134.088 8.62122 139.859 8.62122C142.252 8.62122 145.56 9.43056 149.782 11.0492C151.26 11.6123 152.351 11.8938 153.055 11.8938C153.829 11.8938 154.322 11.753 154.533 11.4715C154.814 11.19 155.061 10.451 155.272 9.25461C155.413 8.55084 155.8 8.19895 156.433 8.19895C157.137 8.19895 157.489 8.62122 157.489 9.46575C157.489 10.0288 157.453 10.451 157.383 10.7325C157.172 12.4216 157.066 14.4625 157.066 16.8554C157.066 20.2335 157.242 22.9078 157.594 24.8784L157.7 26.5674C157.77 27.3416 157.453 27.7286 156.75 27.7286C155.976 27.7286 155.448 26.9193 155.166 25.3006C154.392 21.1484 152.562 17.6999 149.677 14.9552C146.791 12.1401 143.554 10.7325 139.965 10.7325C136.446 10.7325 133.631 11.8586 131.519 14.1106C129.479 16.3627 128.458 19.4241 128.458 23.2949C128.458 27.799 129.971 31.4235 132.997 34.1682C134.686 35.7165 138.346 37.8982 143.976 40.7133C150.592 44.021 155.342 47.3991 158.228 50.8476C161.113 54.2257 162.556 58.0964 162.556 62.4598Z" fill="#782D36"/>
<path d="M224.95 65.9435C224.95 66.225 224.88 67.9493 224.739 71.1162C224.598 74.2832 224.528 77.3094 224.528 80.1949V83.6786C217.631 83.3267 203.978 83.1508 183.568 83.1508C181.105 83.1508 178.677 83.1859 176.284 83.2563C173.892 83.2563 172.273 83.2563 171.428 83.2563H170.373C169.035 83.2563 168.367 82.9396 168.367 82.3062C168.367 81.884 168.578 81.6377 169 81.5673C169.211 81.5673 170.549 81.4617 173.012 81.2506C174.842 81.1098 175.932 80.7227 176.284 80.0893C176.707 79.456 176.918 77.8021 176.918 75.1278V15.7997C176.918 13.7588 176.601 12.5623 175.968 12.2105C175.405 11.7882 173.504 11.5771 170.267 11.5771C169.141 11.5771 168.578 11.2604 168.578 10.627C168.578 9.99357 169.352 9.67688 170.9 9.67688L188.952 9.78245C189.586 9.78245 193.562 9.74726 200.881 9.67688C208.2 9.67688 213.127 9.67688 215.66 9.67688C217.772 9.67688 219.707 9.53612 221.467 9.25461C221.607 12.2808 221.924 16.4683 222.417 21.817L222.839 26.3563C222.909 26.7082 222.944 27.1656 222.944 27.7286C222.944 28.4324 222.628 28.7843 221.994 28.7843C221.22 28.7843 220.657 27.9046 220.305 26.1452C218.968 19.8112 216.786 15.7997 213.76 14.1106C211.508 12.8439 205.596 12.2105 196.025 12.2105H187.369V43.1413H189.902C197.785 43.1413 202.57 42.5431 204.259 41.3467C206.019 40.1502 207.215 36.6666 207.849 30.8956C207.989 29.4177 208.376 28.6787 209.01 28.6787C209.784 28.6787 210.171 29.3121 210.171 30.5789C210.171 31.8457 210.101 33.7107 209.96 36.1739C209.819 38.6371 209.749 40.5021 209.749 41.7689C209.749 49.2993 209.889 54.472 210.171 57.2871C210.241 57.9909 210.277 58.5891 210.277 59.0817C210.277 59.9966 209.89 60.4541 209.115 60.4541C208.623 60.4541 208.271 60.1726 208.06 59.6096C207.919 58.9762 207.637 57.0056 207.215 53.6979C206.652 49.5456 204.928 46.9768 202.042 45.9916C200.776 45.5693 197.468 45.3582 192.119 45.3582H187.369V80.8283C202.852 80.8283 211.93 80.5116 214.605 79.8782C219.25 78.8226 221.889 74.3184 222.522 66.3658C222.663 64.6064 223.12 63.7266 223.895 63.7266C224.598 63.7266 224.95 64.4656 224.95 65.9435Z" fill="#782D36"/>
<path d="M279.637 27.3064C279.637 34.133 276.716 39.4465 270.875 43.2468C267.215 45.6397 262.57 46.8361 256.94 46.8361C254.547 46.8361 251.838 46.5898 248.811 46.0971V76.0778C248.811 77.6965 248.882 78.717 249.023 79.1393C249.374 80.1245 250.149 80.7227 251.345 80.9339C253.386 81.2154 255.357 81.3561 257.257 81.3561C258.031 81.3561 258.418 81.6025 258.418 82.0951C258.418 82.7989 257.925 83.1508 256.94 83.1508C256.518 83.1508 256.166 83.1156 255.884 83.0452C252.014 83.1156 244.73 83.1508 234.032 83.1508H232.66C230.549 83.1508 229.493 82.7989 229.493 82.0951C229.493 81.6025 230.232 81.3561 231.71 81.3561C235.017 81.3561 236.918 81.0394 237.41 80.4061C237.973 80.1245 238.29 79.4208 238.36 78.2947V16.0108C238.36 13.8291 237.762 12.492 236.566 11.9993C235.862 11.7178 234.63 11.5771 232.871 11.5771H231.815C231.604 11.6474 231.358 11.6826 231.076 11.6826C230.021 11.6826 229.493 11.3659 229.493 10.7325C229.493 10.0288 230.478 9.67688 232.449 9.67688H255.673C263.696 9.67688 269.573 11.0844 273.303 13.8995C277.525 17.0665 279.637 21.5355 279.637 27.3064ZM268.552 27.5175C268.552 16.9609 264.118 11.6826 255.251 11.6826C252.295 11.6826 250.36 12.1753 249.445 13.1605C249.023 13.5828 248.811 14.6737 248.811 16.4331V44.5136C249.374 44.584 250.008 44.6192 250.712 44.6192C255.357 44.6192 259.298 43.5987 262.535 41.5578C266.547 39.0242 268.552 34.3441 268.552 27.5175Z" fill="#782D36"/>
<path d="M352.467 82.0951C352.467 82.7285 351.799 83.0452 350.462 83.0452L335.893 82.9396C334.908 82.9396 333.465 82.9748 331.565 83.0452C329.665 83.1156 328.257 83.1508 327.343 83.1508C325.935 83.1508 325.231 82.8693 325.231 82.3062C325.231 81.7432 326.885 81.3561 330.193 81.145C331.952 81.0043 332.973 80.7227 333.254 80.3005C333.536 79.8078 333.677 78.154 333.677 75.3389V44.5136H301.901V74.3888C301.901 77.5558 302.148 79.4208 302.64 79.9838C303.133 80.5468 304.787 80.9339 307.602 81.145C309.432 81.2858 310.346 81.6025 310.346 82.0951C310.346 82.7285 309.643 83.0452 308.235 83.0452H307.285C305.596 83.0452 303.801 83.01 301.901 82.9396C300.071 82.8693 298.981 82.8341 298.629 82.8341C297.643 82.8341 296.165 82.8693 294.195 82.9396C292.224 83.01 289.268 83.0452 285.327 83.0452C283.92 83.0452 283.216 82.7637 283.216 82.2007C283.216 81.6377 283.92 81.2858 285.327 81.145C286.242 81.0746 287.192 81.0043 288.178 80.9339C289.726 80.7931 290.711 80.4412 291.133 79.8782C291.345 79.5263 291.45 77.5558 291.45 73.9665V18.2277C291.45 15.0607 291.274 13.1957 290.922 12.6327C290.641 12.0697 289.55 11.753 287.65 11.6826C285.468 11.5419 284.166 11.4363 283.744 11.3659C283.392 11.2956 283.216 11.014 283.216 10.5214C283.216 9.95838 283.674 9.67688 284.588 9.67688C284.87 9.67688 285.468 9.71207 286.383 9.78245C288.142 9.9232 292.295 9.99358 298.84 9.99358C302.429 9.99358 304.927 9.95839 306.335 9.88801C306.828 9.81763 307.461 9.78245 308.235 9.78245C309.502 9.78245 310.135 10.1343 310.135 10.8381C310.135 11.4715 308.974 11.7882 306.652 11.7882C304.4 11.7882 303.027 12.0697 302.535 12.6327C302.112 13.1254 301.901 14.7792 301.901 17.5943V41.8745H333.677V19.1778C333.677 15.4478 333.395 13.2661 332.832 12.6327C332.269 11.9289 330.298 11.6123 326.92 11.6826C325.865 11.6826 325.337 11.3659 325.337 10.7325C325.337 10.0991 325.935 9.78245 327.131 9.78245H327.659C328.645 9.78245 330.369 9.78245 332.832 9.78245C335.366 9.85282 337.266 9.88801 338.533 9.88801C342.826 9.88801 345.711 9.85282 347.189 9.78245C348.737 9.71207 349.723 9.67688 350.145 9.67688C351.623 9.67688 352.362 9.99357 352.362 10.627C352.362 11.2604 350.813 11.6123 347.717 11.6826C346.802 11.6826 346.133 11.753 345.711 11.8938C345.007 12.1049 344.55 12.492 344.339 13.055C344.198 13.618 344.128 15.2719 344.128 18.0166V74.1777C344.128 77.5558 344.304 79.5263 344.655 80.0893C345.359 80.8635 347.4 81.2506 350.778 81.2506C351.904 81.1098 352.467 81.3913 352.467 82.0951Z" fill="#782D36"/>
<path d="M461.683 28.0336C461.683 36.1661 459.65 44.1813 455.583 52.0792C451.517 59.8989 445.965 66.6238 438.927 72.254C428.527 80.4647 418.127 84.57 407.727 84.57C399.907 84.57 393.808 82.4196 389.429 78.1188C385.05 73.7398 382.86 67.6404 382.86 59.8207C382.86 51.9228 384.893 43.8294 388.96 35.5405C393.026 27.1734 398.5 19.9793 405.381 13.9582C415.703 4.88731 426.26 0.351882 437.051 0.351882C444.949 0.351882 451.087 3.20607 455.466 8.91445C459.611 14.31 461.683 20.6831 461.683 28.0336ZM450.54 20.5267C450.54 16.0695 449.68 12.1205 447.959 8.67986C445.77 4.22263 441.821 1.99402 436.112 1.99402C426.338 1.99402 417.071 9.07085 408.313 23.2245C404.013 30.184 400.572 37.5736 397.991 45.3933C395.489 53.213 394.238 60.2899 394.238 66.6238C394.238 77.4932 399.164 82.9279 409.017 82.9279C414.882 82.9279 420.629 80.4647 426.26 75.5383C433.766 69.0479 439.788 59.8598 444.323 47.9738C448.468 37.1827 450.54 28.0336 450.54 20.5267Z" fill="#782D36"/>
<path d="M500.62 0.938359C500.62 1.09476 500.425 1.64213 500.034 2.5805C499.799 3.20607 499.408 4.14444 498.861 5.39559L472.587 69.5562C470.632 74.3262 469.654 77.415 469.654 78.8226C469.654 80.9339 471.062 81.9895 473.877 81.9895C476.692 81.9895 479.507 80.3474 482.322 77.0631C483.495 75.6556 484.238 74.9518 484.551 74.9518C485.098 74.9518 485.372 75.2255 485.372 75.7729C485.372 76.7894 484.082 78.4316 481.501 80.6993C478.53 83.358 474.698 84.6873 470.006 84.6873C463.594 84.6873 460.388 82.3023 460.388 77.5323C460.388 75.9684 461.365 72.8014 463.32 68.0314L489.595 3.98804C489.829 3.51886 489.946 3.24517 489.946 3.16697C489.946 2.4632 489.204 2.11131 487.718 2.11131C484.277 2.11131 482.557 1.79853 482.557 1.17295C482.557 0.703768 482.909 0.469176 483.612 0.469176C484.316 0.469176 485.372 0.508276 486.779 0.586477C488.265 0.664673 489.36 0.703771 490.064 0.703771C493.426 0.703771 495.929 0.547376 497.571 0.234588C498.431 0.078196 499.017 0 499.33 0C500.19 0 500.62 0.312786 500.62 0.938359Z" fill="#782D36"/>
<path d="M545.212 34.0157C545.212 34.0157 545.134 34.2112 544.977 34.6022L544.156 36.4789L531.019 67.093C528.36 73.2706 527.031 77.1022 527.031 78.588C527.031 80.6993 528.048 81.7549 530.081 81.7549C532.974 81.7549 536.18 79.7218 539.699 75.6556C540.559 74.639 541.146 74.1307 541.458 74.1307C541.928 74.1307 542.162 74.3653 542.162 74.8345C542.162 76.7112 539.855 79.0571 535.242 81.8722C532.505 83.5144 529.69 84.3354 526.797 84.3354C524.529 84.3354 522.535 83.7099 520.814 82.4587C519.094 81.2076 518.234 79.7609 518.234 78.1188C518.234 77.1804 518.586 75.7338 519.29 73.7789L520.697 69.7908C515.458 75.812 511.47 79.7218 508.733 81.5204C506.074 83.3189 502.79 84.2182 498.88 84.2182C495.83 84.2182 493.328 83.6317 491.373 82.4587C489.418 81.2076 488.441 79.6045 488.441 77.6496C488.441 75.5383 489.301 72.5668 491.021 68.7351L503.103 41.6399C503.416 40.9361 504.08 39.5677 505.097 37.5345C505.331 37.1436 505.449 36.8699 505.449 36.7135C505.449 36.0879 504.51 35.7751 502.634 35.7751C500.131 35.7751 498.88 35.345 498.88 34.4849C498.88 33.9375 499.154 33.6638 499.701 33.6638C500.327 33.6638 501.226 33.742 502.399 33.8984C503.572 34.0548 504.471 34.133 505.097 34.133C509.163 34.133 512.174 33.7811 514.129 33.0773C514.598 32.9209 514.911 32.8427 515.067 32.8427C515.458 32.8427 515.653 33.0773 515.653 33.5465C515.653 34.1721 514.871 36.1661 513.307 39.5286C511.744 42.8128 510.297 46.2144 508.968 49.7333C508.655 50.5934 507.443 53.4476 505.331 58.2958L500.64 69.087C498.685 73.5443 497.707 76.7112 497.707 78.588C497.707 80.8557 499.154 81.9895 502.047 81.9895C505.097 81.9895 509.046 79.4872 513.894 74.4826C519.368 68.8524 523.903 61.7365 527.5 53.1348L535.007 35.3059C535.398 34.3676 535.828 33.8984 536.297 33.8984C536.219 33.8984 537.04 33.9766 538.761 34.133H539.699C541.81 34.133 543.179 34.0157 543.804 33.7811C544.195 33.6247 544.469 33.5465 544.625 33.5465C545.016 33.5465 545.212 33.7029 545.212 34.0157Z" fill="#782D36"/>
<path d="M588.644 41.5226C588.644 42.8519 588.214 43.9858 587.354 44.9242C586.494 45.8625 585.477 46.3317 584.304 46.3317C581.958 46.3317 580.785 45.1979 580.785 42.9301C580.785 41.0534 581.567 40.115 583.131 40.115C583.366 40.115 583.718 40.2323 584.187 40.4669C584.734 40.7015 585.164 40.8188 585.477 40.8188C585.946 40.8188 586.181 40.5451 586.181 39.9978C586.181 38.6684 585.282 37.3782 583.483 36.127C581.685 34.8759 579.847 34.2503 577.97 34.2503C575.468 34.2503 573.357 35.0713 571.636 36.7135C569.916 38.2774 569.056 40.1932 569.056 42.461C569.056 44.4159 570.893 49.8506 574.569 58.765C575.429 60.8763 575.859 63.2614 575.859 65.9201C575.859 71.2375 574.06 75.6947 570.463 79.2917C566.866 82.8888 562.37 84.6873 556.974 84.6873C552.283 84.6873 548.334 83.3971 545.128 80.8166C542 78.1579 540.436 74.9127 540.436 71.0811C540.436 68.8915 541.1 67.093 542.43 65.6855C543.681 64.2779 545.284 63.5741 547.239 63.5741C548.725 63.5741 549.976 64.0824 550.992 65.099C552.087 66.1156 552.634 67.3276 552.634 68.7351C552.634 71.0811 551.501 72.254 549.233 72.254C546.809 72.254 545.597 71.4329 545.597 69.7908C545.597 69.2434 545.675 68.6961 545.831 68.1487C546.066 67.6013 546.183 67.2885 546.183 67.2103C546.183 66.4283 545.87 66.0374 545.245 66.0374C544.541 66.0374 543.915 66.5847 543.368 67.6795C542.743 68.6961 542.43 69.8299 542.43 71.0811C542.43 74.1307 543.681 76.7894 546.183 79.0572C548.764 81.3249 551.774 82.4587 555.215 82.4587C558.421 82.4587 561.08 81.4813 563.191 79.5263C565.381 77.5714 566.475 75.1082 566.475 72.1367C566.475 70.0254 565.654 66.5847 564.012 61.8147C562.448 57.2793 561.666 53.5258 561.666 50.5543C561.666 45.4715 563.191 41.2098 566.241 37.7691C569.369 34.2503 573.161 32.4908 577.618 32.4908C580.59 32.4908 583.17 33.3901 585.36 35.1886C587.549 36.9872 588.644 39.0985 588.644 41.5226Z" fill="#782D36"/>
<path d="M636.466 51.4927C636.466 60.6418 632.282 68.8915 623.915 76.2421C617.347 82.0286 610.505 84.9219 603.389 84.9219C598.54 84.9219 594.552 83.2407 591.424 79.8782C588.297 76.5157 586.733 72.1758 586.733 66.8584C586.733 62.323 588.023 57.6703 590.603 52.9003C593.184 48.1302 596.625 44.064 600.925 40.7015C607.65 35.4623 614.141 32.8427 620.396 32.8427C625.167 32.8427 629.037 34.5631 632.009 38.0037C634.98 41.4444 636.466 45.9407 636.466 51.4927ZM627.434 43.8685C627.434 37.9255 624.775 34.954 619.458 34.954C612.968 34.954 607.338 39.6068 602.568 48.9122C598.032 57.8267 595.764 66.1937 595.764 74.0134C595.764 79.8782 598.384 82.8106 603.623 82.8106C610.192 82.8106 615.666 78.588 620.045 70.1427C624.971 60.6027 627.434 51.8446 627.434 43.8685Z" fill="#782D36"/>
<path d="M681.145 0.938359C681.145 1.09476 680.95 1.64213 680.559 2.5805C680.324 3.20607 679.933 4.14444 679.386 5.39559L653.112 69.5562C651.157 74.3262 650.179 77.415 650.179 78.8226C650.179 80.9339 651.587 81.9895 654.402 81.9895C657.217 81.9895 660.032 80.3474 662.847 77.0631C664.02 75.6556 664.763 74.9518 665.076 74.9518C665.623 74.9518 665.897 75.2255 665.897 75.7729C665.897 76.7894 664.607 78.4316 662.026 80.6993C659.055 83.358 655.223 84.6873 650.531 84.6873C644.119 84.6873 640.913 82.3023 640.913 77.5323C640.913 75.9684 641.891 72.8014 643.845 68.0314L670.12 3.98804C670.354 3.51886 670.472 3.24517 670.472 3.16697C670.472 2.4632 669.729 2.11131 668.243 2.11131C664.802 2.11131 663.082 1.79853 663.082 1.17295C663.082 0.703768 663.434 0.469176 664.138 0.469176C664.841 0.469176 665.897 0.508276 667.305 0.586477C668.79 0.664673 669.885 0.703771 670.589 0.703771C673.951 0.703771 676.454 0.547376 678.096 0.234588C678.956 0.078196 679.542 0 679.855 0C680.715 0 681.145 0.312786 681.145 0.938359Z" fill="#782D36"/>
<path d="M726.089 33.0773C726.089 33.3119 725.776 34.133 725.15 35.5405L709.667 70.7292C708.182 74.0916 707.439 76.6721 707.439 78.4707C707.439 80.5038 708.455 81.5204 710.489 81.5204C713.538 81.5204 716.588 79.4481 719.638 75.3037C720.263 74.4435 720.732 74.0134 721.045 74.0134C721.358 74.0134 721.514 74.1698 721.514 74.4826C721.514 75.3428 720.654 76.7112 718.934 78.588C715.493 82.2632 711.388 84.1009 706.618 84.1009C704.194 84.1009 702.2 83.5144 700.636 82.3414C699.15 81.1685 698.407 79.6436 698.407 77.7669C698.407 76.5939 698.681 75.2255 699.228 73.6616C694.302 80.9339 688.593 84.57 682.103 84.57C678.037 84.57 674.713 83.2798 672.133 80.6993C669.552 78.0406 668.262 74.6781 668.262 70.6119C668.262 66.1546 669.748 61.2673 672.719 55.9499C675.691 50.6325 679.64 45.7843 684.566 41.4053C691.291 35.4623 697.469 32.4908 703.099 32.4908C708.964 32.4908 712.248 35.3059 712.952 40.9361L715.884 34.7195C716.51 33.4683 717.057 32.8427 717.526 32.8427C717.683 32.8427 718.152 32.9209 718.934 33.0773C719.716 33.2337 720.263 33.3119 720.576 33.3119C722.296 33.3119 723.626 33.0773 724.564 32.6081C724.877 32.3735 725.15 32.2563 725.385 32.2563C725.854 32.2563 726.089 32.5299 726.089 33.0773ZM711.31 43.0474C711.31 40.6233 710.567 38.6684 709.081 37.1827C707.673 35.6969 705.836 34.954 703.568 34.954C699.658 34.954 695.905 37.2609 692.308 41.8745C688.163 47.1137 684.84 52.6657 682.338 58.5304C679.835 64.317 678.584 69.3998 678.584 73.7789C678.584 79.0962 680.774 81.7549 685.153 81.7549C687.655 81.7549 690.353 80.3865 693.246 77.6496C696.218 74.9127 698.681 71.472 700.636 67.3276L709.785 47.622C710.801 45.4324 711.31 43.9076 711.31 43.0474Z" fill="#782D36"/>
<path d="M822.616 64.9934C822.616 65.2906 822.542 67.1106 822.393 70.4535C822.244 73.7965 822.17 76.9908 822.17 80.0366V83.7138C814.89 83.3423 800.478 83.1566 778.935 83.1566C776.335 83.1566 773.772 83.1938 771.246 83.2681C768.721 83.2681 767.012 83.2681 766.12 83.2681H765.006C763.595 83.2681 762.889 82.9338 762.889 82.2652C762.889 81.8195 763.112 81.5595 763.558 81.4852C763.78 81.4852 765.192 81.3737 767.792 81.1509C769.723 81.0023 770.875 80.5937 771.246 79.9251C771.692 79.2565 771.915 77.5108 771.915 74.6879V12.0638C771.915 9.9095 771.581 8.64662 770.912 8.27519C770.318 7.82946 768.312 7.6066 764.895 7.6066C763.706 7.6066 763.112 7.27231 763.112 6.60372C763.112 5.93514 763.929 5.60084 765.563 5.60084L784.618 5.71228C785.287 5.71228 789.484 5.67514 797.21 5.60084C804.936 5.60084 810.136 5.60084 812.81 5.60084C815.039 5.60084 817.081 5.45227 818.939 5.15512C819.087 8.34947 819.422 12.7696 819.942 18.4154L820.387 23.2069C820.462 23.5783 820.499 24.0612 820.499 24.6555C820.499 25.3984 820.164 25.7698 819.496 25.7698C818.679 25.7698 818.084 24.8412 817.713 22.984C816.301 16.2982 813.999 12.0638 810.804 10.2809C808.427 8.94377 802.187 8.27519 792.084 8.27519H782.947V40.9244H785.621C793.941 40.9244 798.993 40.2929 800.775 39.0301C802.633 37.7672 803.896 34.09 804.564 27.9984C804.713 26.4384 805.121 25.6584 805.79 25.6584C806.607 25.6584 807.016 26.327 807.016 27.6641C807.016 29.0013 806.941 30.9699 806.793 33.57C806.644 36.17 806.57 38.1386 806.57 39.4758C806.57 47.4245 806.718 52.8846 807.016 55.8561C807.09 56.599 807.127 57.2304 807.127 57.7504C807.127 58.7162 806.718 59.199 805.901 59.199C805.381 59.199 805.01 58.9019 804.787 58.3076C804.638 57.639 804.341 55.5589 803.896 52.0675C803.301 47.6845 801.481 44.973 798.435 43.933C797.098 43.4873 793.607 43.2644 787.961 43.2644H782.947V80.7052C799.29 80.7052 808.873 80.3709 811.696 79.7023C816.599 78.588 819.384 73.8336 820.053 65.4391C820.202 63.582 820.684 62.6534 821.502 62.6534C822.244 62.6534 822.616 63.4334 822.616 64.9934Z" fill="#782D36"/>
<path d="M899.952 44.4902C899.952 57.5647 895.384 67.742 886.246 75.0222C879.56 80.3709 870.609 83.0452 859.391 83.0452C859.094 83.0452 857.757 83.0081 855.38 82.9338C853.077 82.8595 849.697 82.8223 845.24 82.8223H839.668L830.865 82.9338C830.345 83.0081 829.788 83.0452 829.194 83.0452C827.782 83.0452 827.077 82.6738 827.077 81.9309C827.077 81.2623 828.265 80.928 830.642 80.928C833.688 80.928 835.582 80.3709 836.325 79.2566C836.622 78.7365 836.771 77.3251 836.771 75.0222V14.961C836.771 11.321 836.474 9.20377 835.88 8.60948C835.36 8.01518 833.465 7.71803 830.197 7.71803C828.488 7.71803 827.634 7.30945 827.634 6.49229C827.634 5.89799 828.265 5.60084 829.528 5.60084C829.454 5.60084 830.271 5.63799 831.98 5.71228C833.688 5.78657 835.36 5.82371 836.994 5.82371H848.917C862.289 5.82371 871.76 6.7523 877.332 8.60948C884.092 10.8381 889.552 15.2582 893.712 21.8697C897.872 28.407 899.952 35.9471 899.952 44.4902ZM887.472 44.0444C887.472 31.7128 885.058 22.6869 880.229 16.9668C875.4 11.1724 867.86 8.27519 857.609 8.27519C852.631 8.27519 849.623 8.7952 848.583 9.83522C848.137 10.3552 847.914 12.1381 847.914 15.1839V74.465C847.914 76.5451 847.951 77.808 848.026 78.2537C848.174 78.6994 848.508 79.0708 849.028 79.368C850.811 80.2594 854.563 80.7052 860.283 80.7052C868.306 80.7052 874.769 77.8822 879.672 72.2364C884.872 66.2934 887.472 56.8961 887.472 44.0444Z" fill="#782D36"/>
<path d="M981.165 59.5333C981.165 60.2019 980.831 60.5362 980.162 60.5362L977.599 60.4248C974.182 60.2762 972.251 60.8705 971.805 62.2076C971.508 63.0991 971.359 66.3306 971.359 71.9021V75.4679C967.571 78.7365 963.893 81.0394 960.328 82.3766C956.836 83.7138 952.639 84.3824 947.736 84.3824C935.999 84.3824 926.676 80.8909 919.767 73.9079C912.858 66.8506 909.404 57.3047 909.404 45.2702C909.404 33.0871 912.784 23.244 919.544 15.741C926.304 8.23804 935.219 4.48654 946.287 4.48654C951.116 4.48654 956.39 5.82371 962.111 8.49805C963.819 9.3152 965.231 9.72378 966.345 9.72378C967.756 9.72378 968.685 8.83234 969.131 7.04945C969.502 6.00943 969.948 5.48942 970.468 5.48942C971.062 5.48942 971.359 5.78656 971.359 6.38086C971.359 6.60372 971.285 7.38374 971.136 8.7209C970.691 12.9553 970.468 16.001 970.468 17.8582L970.579 25.1012C970.654 27.7013 970.691 28.8527 970.691 28.5556C970.542 30.3385 970.059 31.2299 969.242 31.2299C968.574 31.2299 968.202 30.7099 968.128 29.6699C967.756 22.464 965.676 16.8182 961.888 12.7324C958.099 8.57233 953.122 6.49229 946.956 6.49229C939.23 6.49229 933.101 9.94664 928.57 16.8553C924.113 23.7641 921.884 33.1614 921.884 45.0473C921.884 56.4875 924.15 65.5877 928.681 72.3478C933.287 79.0337 939.49 82.3766 947.29 82.3766C953.233 82.3766 957.319 80.668 959.548 77.2508C960.662 75.5422 961.219 72.4593 961.219 68.0021C961.219 64.2877 960.848 62.0962 960.105 61.4276C959.436 60.7591 957.022 60.4619 952.862 60.5362C951.822 60.5362 951.153 60.499 950.856 60.4248C950.559 60.2762 950.41 60.0162 950.41 59.6447C950.41 58.8276 951.228 58.419 952.862 58.419H954.868C955.982 58.6419 959.919 58.7162 966.679 58.6419L976.039 58.5304C976.559 58.5304 977.117 58.4933 977.711 58.419C978.305 58.419 978.714 58.419 978.937 58.419C980.422 58.419 981.165 58.7904 981.165 59.5333Z" fill="#782D36"/>
<path d="M1050.81 82.2652C1050.81 82.9338 1050.26 83.2681 1049.14 83.2681C1048.4 83.2681 1047.73 83.2309 1047.14 83.1566L1032.98 82.9338L1018.83 83.1566C1018.31 83.2309 1017.76 83.2681 1017.16 83.2681C1015.68 83.2681 1014.93 82.8966 1014.93 82.1537C1014.93 81.3366 1015.94 80.928 1017.94 80.928C1024.48 80.8537 1027.75 80.1851 1027.75 78.9223C1027.75 78.848 1027.67 78.5508 1027.52 78.0308L1026.63 75.0222L1026.08 73.4622C1025.41 71.1593 1023.77 66.0706 1021.17 58.1961H997.327C992.87 70.0821 990.641 76.9165 990.641 78.6994C990.641 79.7394 991.087 80.3709 991.978 80.5937C992.201 80.668 994.058 80.8166 997.55 81.0394C999.704 81.1137 1000.78 81.4852 1000.78 82.1537C1000.78 82.8966 999.816 83.2681 997.884 83.2681C994.467 83.2681 990.493 83.1195 985.961 82.8223C984.847 82.748 983.695 82.7109 982.507 82.7109C981.318 82.7109 980.167 82.7852 979.052 82.9338C978.458 83.0081 977.975 83.0452 977.604 83.0452C976.564 83.0452 976.044 82.7109 976.044 82.0423C976.044 81.3737 977.195 81.0023 979.498 80.928C981.875 80.8537 983.584 80.5194 984.624 79.9251C985.664 79.2565 986.481 78.0308 987.075 76.2479C996.658 48.9103 1004.46 26.9584 1010.48 10.3924C1010.62 9.50092 1010.92 8.49805 1011.37 7.38374L1011.92 5.37799C1012.15 4.56083 1012.44 4.15225 1012.82 4.15225C1013.04 4.15225 1013.22 4.37511 1013.37 4.82083C1014.34 7.71803 1016.53 13.7724 1019.95 22.984C1022.62 30.1899 1029.27 48.2788 1039.89 77.2508C1040.49 78.8851 1041.23 79.9251 1042.12 80.3709C1043.09 80.8166 1045.02 81.0766 1047.92 81.1509C1049.85 81.2252 1050.81 81.5966 1050.81 82.2652ZM1020.5 55.6332C1019.32 52.2903 1017.35 46.7559 1014.6 39.0301L1009.25 23.7641C1006.13 31.9356 1002.38 42.5587 997.996 55.6332H1020.5Z" fill="#782D36"/>
<path d="M1111.94 79.7023C1111.94 82.8223 1109.34 84.3824 1104.14 84.3824C1098.35 84.3824 1093.81 81.968 1090.55 77.1394C1089.13 75.0593 1088.21 73.0536 1087.76 71.1221C1087.39 69.1906 1086.79 64.2877 1085.98 56.4133C1085.53 51.6589 1084.01 48.316 1081.41 46.3845C1078.81 44.3787 1074.57 43.3016 1068.71 43.153V78.2537C1068.71 79.7394 1069.89 80.668 1072.27 81.0394C1072.94 81.1137 1074.65 81.188 1077.4 81.2623C1078.36 81.2623 1078.85 81.5595 1078.85 82.1537C1078.85 82.8223 1078.21 83.1566 1076.95 83.1566H1075.61C1074.95 83.0823 1071.71 83.0452 1065.92 83.0452C1064.81 83.0452 1062.91 83.0823 1060.24 83.1566C1057.64 83.1566 1055.93 83.1566 1055.11 83.1566H1050.77C1049.13 83.1566 1048.31 82.8223 1048.31 82.1537C1048.31 81.6337 1049.39 81.3366 1051.55 81.2623C1055.04 81.188 1056.93 80.7423 1057.23 79.9251C1057.53 79.5537 1057.67 78.1051 1057.67 75.5793V14.0696C1057.67 11.0981 1057.34 9.3152 1056.67 8.7209C1056.08 8.12661 1054.18 7.79232 1050.99 7.71803C1049.13 7.71803 1048.2 7.38374 1048.2 6.71515C1048.2 5.97228 1048.8 5.60084 1049.98 5.60084C1050.21 5.60084 1050.54 5.63799 1050.99 5.71228L1065.81 6.04657C1067.29 6.04657 1069.37 6.00943 1072.05 5.93514C1075.02 5.78657 1077.1 5.71228 1078.29 5.71228C1085.2 5.71228 1090.66 7.27231 1094.67 10.3924C1098.75 13.4381 1100.8 17.5982 1100.8 22.8726C1100.8 28.0727 1098.72 32.3814 1094.56 35.7986C1090.4 39.1415 1084.75 41.1101 1077.62 41.7044C1076.95 41.7787 1076.58 41.8901 1076.51 42.0387C1076.51 42.3358 1076.88 42.4844 1077.62 42.4844C1085.42 43.8216 1090.77 46.5702 1093.67 50.7303C1096.64 54.8161 1098.61 62.2448 1099.57 73.0164C1100.17 79.108 1102.25 82.1537 1105.81 82.1537C1106.93 82.1537 1107.48 81.9309 1107.48 81.4852C1107.48 81.4109 1107.45 81.3366 1107.37 81.2623C1107 80.4451 1106.81 79.7766 1106.81 79.2566C1106.81 77.6965 1107.63 76.9165 1109.27 76.9165C1111.05 76.9165 1111.94 77.8451 1111.94 79.7023ZM1088.87 23.8755C1088.87 13.2524 1084.27 7.94089 1075.06 7.94089C1072.61 7.94089 1070.93 8.27518 1070.04 8.94377C1069.15 9.61235 1068.71 10.8009 1068.71 12.5096V40.813C1075.84 40.8872 1080.96 39.5872 1084.08 36.9129C1087.28 34.2385 1088.87 29.8927 1088.87 23.8755Z" fill="#782D36"/>
</g>
<defs>
<clipPath id="clip0">
<rect width="1111.94" height="95.7131" fill="white"/>
</clipPath>
</defs>
</svg>
