<svg width="764" height="95" viewBox="0 0 764 95" fill="none" xmlns="http://www.w3.org/2000/svg">
<g clip-path="url(#clip0)">
<path d="M28.3043 40.238V2.1637H0V91.9615H28.3043V54.0309H28.4479L53.5913 91.9615H86.7806L53.4476 45.6977L85.7749 2.1637H54.0224L28.4479 40.238H28.3043Z" fill="white"/>
<path d="M157.12 2.1637H121.058L90.1671 91.9615H118.04L123.356 75.1513H153.816L159.419 91.9615H187.436L157.12 2.1637ZM148.356 53.8872H128.816L138.873 22.4221L148.356 53.8872Z" fill="white"/>
<path d="M262.797 25.2956V2.1637H180.183V25.2956H207.337V91.9615H235.642V25.2956H262.797Z" fill="white"/>
<path d="M340.035 71.2721C328.685 71.2721 316.616 67.6802 306.989 62.9388L302.679 86.0708C310.869 90.5247 324.805 94.1166 339.604 94.1166C365.609 94.1166 379.115 81.7605 379.115 63.8009C379.115 46.5597 364.173 40.3816 349.949 36.3587C341.041 33.9162 332.42 31.9047 332.42 27.7381C332.42 24.1462 335.581 22.9968 341.041 22.9968C350.38 22.9968 362.592 26.3013 372.65 31.1863L377.104 8.05442C368.483 3.74413 356.845 0.15222 340.897 0.15222C316.328 0.15222 304.116 11.6463 304.116 29.1749C304.116 47.4218 320.782 53.7436 334.001 57.4791C344.489 60.4963 350.811 61.7894 350.811 66.0997C350.811 69.8353 346.501 71.2721 340.035 71.2721Z" fill="white"/>
<path d="M485.119 46.7034C485.119 15.3819 464.142 0.00854492 437.275 0.00854492C410.407 0.00854492 389 17.9681 389 47.2781C389 78.5996 409.976 94.1166 436.844 94.1166C463.711 94.1166 485.119 76.0134 485.119 46.7034ZM456.671 47.2781C456.671 61.6458 450.206 71.8468 437.275 71.8468C424.2 71.8468 417.448 61.5021 417.448 46.7034C417.448 32.3357 423.769 22.2784 436.844 22.2784C449.918 22.2784 456.671 32.4794 456.671 47.2781Z" fill="white"/>
<path d="M581.276 54.3182V2.1637H553.115V53.8872C553.115 66.3871 549.236 70.841 539.897 70.841C530.127 70.841 525.96 65.2377 525.96 53.1688V2.1637H497.656V56.6171C497.656 83.7719 515.616 94.1166 539.466 94.1166C564.034 94.1166 581.276 82.0478 581.276 54.3182Z" fill="white"/>
<path d="M625.319 65.3813L633.221 64.663L649.313 91.9615H680.635L658.365 57.4791C670.29 52.7378 675.893 42.9678 675.893 31.6174C675.893 13.6578 662.675 2.1637 637.675 2.1637H597.015V91.9615H625.319V65.3813ZM624.745 45.2666V23.7152H632.503C642.704 23.7152 646.583 27.0197 646.583 33.6288C646.583 40.9563 643.135 44.2609 634.515 45.123L624.745 45.2666Z" fill="white"/>
<path d="M724.482 71.2721C713.131 71.2721 701.063 67.6802 691.436 62.9388L687.126 86.0708C695.316 90.5247 709.252 94.1166 724.051 94.1166C750.056 94.1166 763.562 81.7605 763.562 63.8009C763.562 46.5597 748.619 40.3816 734.396 36.3587C725.488 33.9162 716.867 31.9047 716.867 27.7381C716.867 24.1462 720.028 22.9968 725.488 22.9968C734.827 22.9968 747.039 26.3013 757.096 31.1863L761.55 8.05442C752.93 3.74413 741.292 0.15222 725.344 0.15222C700.775 0.15222 688.563 11.6463 688.563 29.1749C688.563 47.4218 705.229 53.7436 718.447 57.4791C728.936 60.4963 735.258 61.7894 735.258 66.0997C735.258 69.8353 730.947 71.2721 724.482 71.2721Z" fill="white"/>
</g>
<defs>
<clipPath id="clip0">
<rect width="763.562" height="94.1081" fill="white" transform="translate(0 0.00854492)"/>
</clipPath>
</defs>
</svg>
