<svg width="637" height="79" viewBox="0 0 637 79" fill="none" xmlns="http://www.w3.org/2000/svg">
<g clip-path="url(#clip0)">
<path d="M0 5.58271V6.70646C2.34114 6.9874 6.5552 7.17469 6.5552 9.70313V73.8505C6.5552 76.3789 2.34114 76.5662 0 76.8471V77.9709H22.5686V76.8471C20.3211 76.5662 16.0134 76.3789 16.0134 73.8505V9.70313C16.0134 7.26834 20.0402 6.70646 22.2877 6.70646C31.8396 6.70646 38.863 10.265 38.863 22.9072C38.863 31.6162 32.1205 34.1447 29.2175 37.7032C25.9399 41.73 32.9633 45.3822 34.9299 48.6598C37.6456 53.1548 37.6456 62.0511 37.6456 68.7936C37.6456 74.506 38.2075 77.9709 45.5118 77.9709H53.5654V76.8471C43.5453 76.8471 50.3814 58.8672 44.4817 49.9708C38.9566 41.5427 28.4683 42.7601 30.0603 39.5761C32.0268 36.0176 48.3212 33.1146 48.3212 20.7533C48.3212 9.2349 39.7994 5.58271 22.194 5.58271H0Z" fill="black"/>
<path d="M83.7083 78.5328C99.1599 78.5328 110.866 65.6096 110.866 50.5327C110.866 36.2049 99.8154 25.342 85.394 25.342C70.317 25.342 58.424 38.2651 58.424 53.0611C58.424 67.3889 69.7551 78.5328 83.7083 78.5328ZM67.414 50.72C67.414 42.3855 70.8789 26.653 83.4274 26.653C96.9124 26.653 102.25 41.9173 101.969 53.0611C101.782 62.7066 98.5044 77.2217 85.9558 77.2217C72.5645 77.2217 67.414 61.7702 67.414 50.72Z" fill="black"/>
<path d="M116.513 27.4022C118.854 27.6831 122.6 27.8704 122.6 30.2115V74.1314C122.6 76.4726 118.854 76.8471 116.513 77.0344V77.9709H122.6H124.754H137.209V77.0344C135.242 76.8471 131.122 76.4726 131.122 74.1314V67.2016V57.1815V56.9942C131.964 50.9073 138.426 30.5861 146.76 30.5861C152.098 30.5861 151.443 38.827 151.443 50.8136V74.1314C151.443 76.4726 147.697 76.8471 145.449 77.0344V77.9709H151.443H159.777H166.051V77.0344C164.085 76.8471 160.058 76.4726 160.058 74.1314V72.5394V56.9942C160.901 50.9073 167.363 30.5861 175.697 30.5861C181.035 30.5861 180.379 38.827 180.379 50.8136V74.1314C180.379 76.4726 176.633 76.8471 174.292 77.0344V77.9709H180.379H188.714H194.988V77.0344C193.021 76.8471 188.901 76.4726 188.901 74.1314V72.5394V50.9073C188.901 37.235 189.369 25.8102 178.506 25.8102C168.861 25.8102 162.399 41.73 160.058 52.6865V50.9073C160.058 37.235 160.526 25.8102 149.57 25.8102C139.924 25.8102 133.463 41.73 131.122 52.6865V26.7467V26.4657H116.513V27.4022Z" fill="black"/>
<path d="M197.756 27.4022C199.535 27.4958 203.843 27.964 203.843 30.3052V53.5293C203.843 68.3254 204.498 78.6264 216.298 78.6264C227.16 78.6264 235.776 61.9575 238.117 52.4992V70.1046C238.117 71.2284 238.211 72.3521 238.304 73.3822C238.492 76.5662 240.084 78.5328 243.361 78.5328C247.482 78.5328 252.258 75.0679 254.973 72.0712L254.037 71.4157C251.883 73.6632 250.197 74.506 248.98 74.506C247.482 74.506 246.732 73.0077 246.732 71.0411L246.639 26.4657H238.117V46.7868C237.555 54.7467 229.127 73.7568 219.575 73.7568C212.645 73.7568 212.364 65.4224 212.364 53.5293V26.4657H197.756V26.9339V27.4022Z" fill="black"/>
<path d="M278.663 77.9709V77.0344C276.135 76.7535 272.576 76.3789 272.576 74.0378V5.58271H257.968V6.51917C260.309 6.80011 264.055 7.17469 264.055 9.42219V74.0378C264.055 76.3789 260.309 76.7535 257.968 77.0344V77.9709H278.663Z" fill="black"/>
<path d="M282.073 27.4022C283.853 27.4958 288.16 27.964 288.16 30.3052V53.5293C288.16 68.3254 288.816 78.6264 300.615 78.6264C311.478 78.6264 320.094 61.9575 322.435 52.4992V70.1046C322.435 71.2284 322.528 72.3521 322.622 73.3822C322.809 76.5662 324.401 78.5328 327.679 78.5328C331.799 78.5328 336.575 75.0679 339.291 72.0712L338.355 71.4157C336.201 73.6632 334.515 74.506 333.298 74.506C331.799 74.506 331.05 73.0077 331.05 71.0411L330.957 26.4657H322.435V46.7868C321.873 54.7467 313.445 73.7568 303.893 73.7568C296.963 73.7568 296.682 65.4224 296.682 53.5293V26.4657H282.073V26.9339V27.4022Z" fill="black"/>
<path d="M362.981 78.5328H363.824C377.309 78.0645 382.085 71.0411 382.085 64.0177C381.991 57.4625 375.436 52.5929 370.192 50.5327L360.734 46.6932C355.302 44.5394 352.212 41.5427 352.118 37.1413C352.118 32.6463 356.707 28.0577 362.794 27.964C367.663 27.964 372.252 29.4624 376.653 33.7701C377.964 34.9875 378.995 36.1112 380.118 37.8905L381.055 37.1413C376.747 30.0243 370.66 25.4356 361.015 25.4356H359.891C348.372 25.8102 344.533 35.3621 344.533 40.138C344.627 45.1949 348.56 50.3454 353.898 52.5929L365.135 57.2752C369.911 59.6163 374.593 62.332 374.781 66.827C374.781 70.7602 370.754 75.7234 362.981 75.7234C354.553 75.7234 346.219 71.603 342.285 61.2083L341.162 61.5829C344.533 71.1347 352.025 78.5328 362.981 78.5328Z" fill="black"/>
<path d="M415.376 5.58271V6.61282C418.747 6.9874 421.65 7.36199 422.118 9.60948L434.011 65.1414C436.259 75.6297 439.443 78.4391 444.968 78.4391C447.403 78.4391 450.493 77.8772 452.553 68.7L463.323 20.4724C463.697 18.6931 464.54 16.5393 466.038 16.5393C467.349 16.5393 468.192 18.3185 469.129 22.7199L478.119 65.1414C480.366 75.7234 483.456 78.4391 488.888 78.4391C491.416 78.4391 494.6 77.8772 496.567 68.7L509.115 9.70313C509.771 7.17469 513.423 6.9874 515.858 6.61282V5.58271H501.436V6.61282C502.935 6.80011 508.085 7.26834 507.711 9.60948L495.162 68.7C494.6 71.5093 493.757 73.9441 492.165 73.9441C489.731 73.9441 488.326 67.8571 487.671 64.5795L478.868 22.7199C476.901 13.5426 473.905 9.79677 469.503 9.79677C466.226 9.79677 463.791 11.9506 462.293 18.6931L451.242 68.7C450.68 71.5093 449.838 73.9441 448.246 73.9441C445.811 73.9441 444.406 67.8571 443.751 64.5795L432.232 9.70313C431.577 6.80011 436.259 6.89375 437.757 6.61282V5.58271H415.376Z" fill="black"/>
<path d="M536.756 78.5328C552.208 78.5328 563.914 65.6096 563.914 50.5327C563.914 36.2049 552.863 25.342 538.442 25.342C523.365 25.342 511.472 38.2651 511.472 53.0611C511.472 67.3889 522.803 78.5328 536.756 78.5328ZM520.462 50.72C520.462 42.3855 523.927 26.653 536.475 26.653C549.96 26.653 555.298 41.9173 555.017 53.0611C554.83 62.7066 551.552 77.2217 539.004 77.2217C525.612 77.2217 520.462 61.7702 520.462 50.72Z" fill="black"/>
<path d="M589.414 77.9709V77.0344C586.885 76.7535 583.327 76.3789 583.327 74.0378V5.58271H568.718V6.51917C571.059 6.80011 574.805 7.17469 574.805 9.42219V74.0378C574.805 76.3789 571.059 76.7535 568.718 77.0344V77.9709H589.414Z" fill="black"/>
<path d="M594.978 77.0344V77.9709H616.61V77.0344C614.643 76.8471 609.586 76.4726 609.586 74.1314V27.6831H623.352V26.4657H609.586V26.3721C609.586 14.6664 610.054 5.20813 617.172 2.86699C618.295 2.4924 619.419 2.30511 620.543 2.30511C623.633 2.30511 626.162 3.80344 627.941 6.05095C631.593 10.6396 629.72 16.2583 631.593 16.6329C633.653 17.0075 635.994 12.7934 636.088 12.0443C637.961 4.83355 630.657 0.713135 623.259 0.713135C621.386 0.713135 619.513 0.994074 617.733 1.55595C610.71 3.80344 600.971 11.2015 600.971 26.4657V26.5594H595.539V27.7768H600.971V74.2251C600.971 76.5662 597.225 76.9408 594.884 77.1281L594.978 77.0344Z" fill="black"/>
</g>
<defs>
<clipPath id="clip0">
<rect width="636.385" height="77.9133" fill="white" transform="translate(0 0.713135)"/>
</clipPath>
</defs>
</svg>
