<svg width="927" height="104" viewBox="0 0 927 104" fill="none" xmlns="http://www.w3.org/2000/svg">
<g clip-path="url(#clip0)">
<path d="M66.8096 25.7105C68.6295 20.3466 70.4494 16.9941 72.2693 15.6532C73.0355 15.0785 73.8018 14.6953 74.5681 14.5038C75.4301 14.2164 76.1485 13.9769 76.7232 13.7854C77.3937 13.5938 77.9205 13.4022 78.3037 13.2107C78.7826 12.9233 79.0221 12.4444 79.0221 11.7739C79.0221 10.4329 78.3037 9.76243 76.8669 9.76243C76.1964 9.76243 75.1907 9.90611 73.8497 10.1935C72.6045 10.4808 71.0241 10.6245 69.1084 10.6245C67.0969 10.6245 65.4207 10.4808 64.0797 10.1935C62.8345 9.90611 61.9246 9.76243 61.3499 9.76243C60.2004 9.76243 59.6257 10.3371 59.6257 11.4866C59.6257 12.4444 59.9131 13.1149 60.4878 13.498C61.0625 13.7854 61.6851 14.0727 62.3556 14.3601C63.1219 14.5516 63.7924 14.839 64.3671 15.2221C64.9418 15.6053 65.2291 16.3716 65.2291 17.521C65.2291 17.7125 65.0376 18.6704 64.6544 20.3945C64.3671 22.1186 63.6966 24.3695 62.6429 27.1473L58.189 38.7851C57.6143 40.4134 57.0874 41.2276 56.6085 41.2276C56.0338 41.2276 55.4591 40.4613 54.8844 38.9288L49.4247 23.1243C48.9458 21.8792 48.6105 20.7776 48.419 19.8198C48.3232 18.8619 48.2753 18.0957 48.2753 17.521C48.2753 16.3716 48.5626 15.6053 49.1374 15.2221C49.7121 14.839 50.3347 14.5516 51.0051 14.3601C51.6756 14.1685 52.2982 13.9769 52.8729 13.7854C53.4476 13.498 53.735 12.8754 53.735 11.9176C53.735 10.5766 53.2082 9.90611 52.1546 9.90611C51.6756 9.90611 50.8136 10.0498 49.5684 10.3371C48.419 10.5287 46.8864 10.6245 44.9707 10.6245C42.6719 10.6245 40.5647 10.4808 38.649 10.1935C36.7333 9.90611 35.0092 9.76243 33.4766 9.76243C31.7525 9.76243 30.8904 10.4329 30.8904 11.7739C30.8904 12.9233 31.3215 13.5459 32.1835 13.6417C33.1414 13.7375 34.0513 14.0248 34.9134 14.5038C36.1586 15.27 37.1164 16.4194 37.7869 17.952C38.4574 19.3888 39.1758 21.2565 39.9421 23.5554L50.8615 54.8768C51.053 55.3558 51.1488 56.2178 51.1488 57.463C51.1488 58.1335 50.9573 58.8998 50.5741 59.7618L42.9593 81.1696C42.3846 82.7022 41.8099 83.4685 41.2351 83.4685C40.852 83.4685 40.3731 82.6543 39.7984 81.026L19.3963 20.3945C19.2048 19.9156 19.0611 19.4366 18.9653 18.9577C18.8695 18.4788 18.8216 17.9999 18.8216 17.521C18.8216 16.3716 19.109 15.6053 19.6837 15.2221C20.2584 14.839 20.881 14.5995 21.5515 14.5038C22.3177 14.3122 22.9882 14.0727 23.5629 13.7854C24.1376 13.498 24.425 12.8754 24.425 11.9176C24.425 10.6724 23.8982 10.0498 22.8446 10.0498C22.0783 10.0498 21.1204 10.1456 19.971 10.3371C18.8216 10.5287 17.3849 10.6245 15.6607 10.6245C13.4577 10.6245 11.3983 10.4808 9.48265 10.1935C7.66274 9.90611 5.93863 9.76243 4.31029 9.76243H3.16088C1.05363 9.76243 0 10.385 0 11.6302C0 12.4923 0.383137 13.0191 1.14941 13.2107C1.8199 13.4022 2.63407 13.6417 3.59191 13.9291C4.64554 14.1206 5.69917 14.6474 6.75279 15.5095C7.80642 16.2758 8.71637 17.7604 9.48265 19.9635L33.4766 90.0776C34.9134 94.2921 35.9191 97.5009 36.4938 99.7039C37.1643 101.811 37.739 102.865 38.2179 102.865C38.8884 102.865 39.6068 101.715 40.3731 99.4165L52.1546 66.2273C52.5377 65.0779 52.9687 64.5032 53.4476 64.5032C53.9266 64.5032 54.3576 65.1258 54.7407 66.371L62.7866 90.0776C64.2234 94.3879 65.2291 97.5966 65.8038 99.7039C66.3785 101.811 66.9532 102.865 67.5279 102.865C68.1026 102.865 68.7731 101.715 69.5394 99.4165L92.6713 25.7105C93.5334 23.0286 94.4433 20.8255 95.4012 19.1014C96.4548 17.3773 97.3648 16.2279 98.131 15.6532C98.8015 15.0785 99.5199 14.6953 100.286 14.5038C101.148 14.2164 101.915 13.9769 102.585 13.7854C103.255 13.5938 103.782 13.4022 104.165 13.2107C104.644 12.9233 104.884 12.4444 104.884 11.7739C104.884 10.4329 104.118 9.76243 102.585 9.76243C102.01 9.76243 101.005 9.90611 99.5678 10.1935C98.2268 10.4808 96.4548 10.6245 94.2518 10.6245C92.5276 10.6245 91.0909 10.4808 89.9415 10.1935C88.7921 9.90611 87.8821 9.76243 87.2116 9.76243C86.0622 9.76243 85.4875 10.3371 85.4875 11.4866C85.4875 12.4444 85.7749 13.1149 86.3496 13.498C86.9243 13.7854 87.499 14.0248 88.0737 14.2164C88.7442 14.408 89.3668 14.6953 89.9415 15.0785C90.5162 15.4616 90.8035 16.1321 90.8035 17.0899C90.8035 18.814 90.0373 22.1665 88.5047 27.1473L71.8382 80.7386C71.3593 82.2712 70.8804 83.0374 70.4015 83.0374C69.8268 83.0374 69.3 82.3669 68.821 81.026L58.9074 51.4286C58.8116 51.237 58.7637 50.9497 58.7637 50.5666C58.7637 49.5129 58.8595 48.6509 59.051 47.9804C59.2426 47.3099 59.4342 46.6394 59.6257 45.9689L66.8096 25.7105Z" fill="white"/>
<path d="M115.047 9.76243C113.706 9.76243 112.508 10.4808 111.455 11.9176C110.497 13.3543 110.018 15.0306 110.018 16.9463C110.018 18.8619 110.497 20.4903 111.455 21.8313C112.508 23.1722 113.706 23.8427 115.047 23.8427C116.483 23.8427 117.681 23.1722 118.639 21.8313C119.692 20.3945 120.219 18.7662 120.219 16.9463C120.219 15.0306 119.692 13.3543 118.639 11.9176C117.585 10.4808 116.388 9.76243 115.047 9.76243ZM119.501 37.923C119.501 36.8694 119.453 36.151 119.357 35.7679C119.261 35.289 118.974 35.0495 118.495 35.0495C117.92 35.0495 116.962 35.6721 115.621 36.9173C114.28 38.1625 112.269 39.5514 109.587 41.0839C108.342 42.1375 107.144 42.8559 105.995 43.2391C104.941 43.6222 104.415 44.2927 104.415 45.2505C104.415 45.921 104.654 46.352 105.133 46.5436C105.612 46.6394 106.235 46.6873 107.001 46.6873C109.97 46.6873 111.455 48.4593 111.455 52.0033V91.5143C111.455 93.43 110.976 94.771 110.018 95.5373C109.156 96.3036 108.198 96.8304 107.144 97.1177C106.091 97.3093 105.085 97.5009 104.127 97.6924C103.265 97.7882 102.834 98.2192 102.834 98.9855C102.834 99.656 103.026 100.087 103.409 100.279C103.888 100.374 104.51 100.422 105.277 100.422C106.33 100.422 107.671 100.327 109.3 100.135C111.024 99.9434 112.987 99.8476 115.19 99.8476C117.968 99.8476 120.171 99.9434 121.799 100.135C123.524 100.327 124.673 100.422 125.248 100.422C126.014 100.422 126.541 100.374 126.828 100.279C127.211 100.183 127.403 99.7518 127.403 98.9855C127.403 98.2192 126.972 97.7882 126.11 97.6924C125.343 97.5009 124.434 97.3093 123.38 97.1177C122.422 96.8304 121.512 96.3515 120.65 95.681C119.884 94.9147 119.501 93.5258 119.501 91.5143V37.923Z" fill="white"/>
<path d="M147.97 4.01538C147.97 1.90812 147.635 0.854492 146.964 0.854492C146.485 0.854492 145.575 1.33341 144.234 2.29125C142.989 3.15331 141.121 4.01537 138.631 4.87743C137.098 5.35635 135.757 5.6916 134.608 5.88317C133.459 6.07474 132.884 6.69733 132.884 7.75096C132.884 8.61302 133.219 9.04405 133.89 9.04405C134.369 9.04405 134.704 9.04405 134.895 9.04405C135.183 8.94827 135.374 8.90037 135.47 8.90037C138.439 8.90037 139.924 11.0555 139.924 15.3658V91.5143C139.924 93.43 139.493 94.771 138.631 95.5373C137.769 96.2078 136.811 96.6867 135.757 96.9741C134.704 97.2614 133.746 97.5009 132.884 97.6924C132.022 97.7882 131.591 98.2192 131.591 98.9855C131.591 99.656 131.782 100.087 132.166 100.279C132.549 100.374 133.171 100.422 134.033 100.422C135.183 100.422 136.572 100.327 138.2 100.135C139.924 99.9434 141.84 99.8476 143.947 99.8476C146.342 99.8476 148.305 99.9434 149.838 100.135C151.37 100.327 152.52 100.422 153.286 100.422C154.052 100.422 154.579 100.374 154.866 100.279C155.25 100.087 155.441 99.656 155.441 98.9855C155.441 98.2192 155.058 97.7882 154.292 97.6924C153.525 97.5009 152.663 97.3093 151.706 97.1177C150.748 96.8304 149.886 96.3515 149.119 95.681C148.353 94.9147 147.97 93.5258 147.97 91.5143V4.01538Z" fill="white"/>
<path d="M176.453 4.01538C176.453 1.90812 176.117 0.854492 175.447 0.854492C174.968 0.854492 174.058 1.33341 172.717 2.29125C171.472 3.15331 169.604 4.01537 167.114 4.87743C165.581 5.35635 164.24 5.6916 163.091 5.88317C161.941 6.07474 161.367 6.69733 161.367 7.75096C161.367 8.61302 161.702 9.04405 162.372 9.04405C162.851 9.04405 163.187 9.04405 163.378 9.04405C163.665 8.94827 163.857 8.90037 163.953 8.90037C166.922 8.90037 168.407 11.0555 168.407 15.3658V91.5143C168.407 93.43 167.976 94.771 167.114 95.5373C166.252 96.2078 165.294 96.6867 164.24 96.9741C163.187 97.2614 162.229 97.5009 161.367 97.6924C160.505 97.7882 160.074 98.2192 160.074 98.9855C160.074 99.656 160.265 100.087 160.648 100.279C161.031 100.374 161.654 100.422 162.516 100.422C163.665 100.422 165.054 100.327 166.683 100.135C168.407 99.9434 170.322 99.8476 172.43 99.8476C174.824 99.8476 176.788 99.9434 178.32 100.135C179.853 100.327 181.002 100.422 181.769 100.422C182.535 100.422 183.062 100.374 183.349 100.279C183.732 100.087 183.924 99.656 183.924 98.9855C183.924 98.2192 183.541 97.7882 182.774 97.6924C182.008 97.5009 181.146 97.3093 180.188 97.1177C179.23 96.8304 178.368 96.3515 177.602 95.681C176.836 94.9147 176.453 93.5258 176.453 91.5143V4.01538Z" fill="white"/>
<path d="M201.056 9.76243C199.715 9.76243 198.518 10.4808 197.464 11.9176C196.506 13.3543 196.027 15.0306 196.027 16.9463C196.027 18.8619 196.506 20.4903 197.464 21.8313C198.518 23.1722 199.715 23.8427 201.056 23.8427C202.493 23.8427 203.69 23.1722 204.648 21.8313C205.702 20.3945 206.228 18.7662 206.228 16.9463C206.228 15.0306 205.702 13.3543 204.648 11.9176C203.594 10.4808 202.397 9.76243 201.056 9.76243ZM205.51 37.923C205.51 36.8694 205.462 36.151 205.366 35.7679C205.271 35.289 204.983 35.0495 204.504 35.0495C203.93 35.0495 202.972 35.6721 201.631 36.9173C200.29 38.1625 198.278 39.5514 195.596 41.0839C194.351 42.1375 193.154 42.8559 192.005 43.2391C190.951 43.6222 190.424 44.2927 190.424 45.2505C190.424 45.921 190.664 46.352 191.142 46.5436C191.621 46.6394 192.244 46.6873 193.01 46.6873C195.98 46.6873 197.464 48.4593 197.464 52.0033V91.5143C197.464 93.43 196.985 94.771 196.027 95.5373C195.165 96.3036 194.208 96.8304 193.154 97.1177C192.1 97.3093 191.095 97.5009 190.137 97.6924C189.275 97.7882 188.844 98.2192 188.844 98.9855C188.844 99.656 189.035 100.087 189.418 100.279C189.897 100.374 190.52 100.422 191.286 100.422C192.34 100.422 193.681 100.327 195.309 100.135C197.033 99.9434 198.997 99.8476 201.2 99.8476C203.978 99.8476 206.181 99.9434 207.809 100.135C209.533 100.327 210.682 100.422 211.257 100.422C212.023 100.422 212.55 100.374 212.838 100.279C213.221 100.183 213.412 99.7518 213.412 98.9855C213.412 98.2192 212.981 97.7882 212.119 97.6924C211.353 97.5009 210.443 97.3093 209.389 97.1177C208.432 96.8304 207.522 96.3515 206.66 95.681C205.893 94.9147 205.51 93.5258 205.51 91.5143V37.923Z" fill="white"/>
<path d="M257.255 50.7102C257.255 48.2198 257.159 45.9689 256.968 43.9574C256.776 41.946 256.249 40.2218 255.387 38.7851C254.525 37.3483 253.232 36.2468 251.508 35.4805C249.784 34.7142 247.437 34.3311 244.468 34.3311C240.732 34.3311 237.284 35.0495 234.123 36.4863C230.962 37.923 228.232 39.695 225.934 41.8023C223.635 43.9095 221.863 46.1126 220.617 48.4114C219.372 50.7102 218.75 52.7217 218.75 54.4458C218.75 55.2121 218.989 55.8347 219.468 56.3136C219.947 56.6967 220.522 56.8883 221.192 56.8883C223.874 56.8883 225.742 55.8826 226.796 53.8711C227.849 51.7639 228.903 49.2256 229.956 46.2563C230.818 43.8616 232.351 41.8023 234.554 40.0782C236.757 38.3541 239.104 37.492 241.594 37.492C244.564 37.492 246.479 38.4498 247.341 40.3655C248.299 42.2812 248.778 45.4421 248.778 49.8482V62.4917C243.893 65.2694 239.583 67.8556 235.847 70.2502C232.112 72.6448 228.951 74.9916 226.365 77.2904C223.874 79.4934 222.006 81.7922 220.761 84.1868C219.516 86.4857 218.893 88.9761 218.893 91.658C218.893 95.1063 219.851 97.884 221.767 99.9913C223.683 102.003 226.365 103.008 229.813 103.008C232.878 103.008 235.799 102.099 238.577 100.279C241.451 98.4587 244.707 96.0162 248.347 92.9511H248.922C249.784 96.3036 250.694 98.7461 251.652 100.279C252.705 101.715 254.19 102.434 256.106 102.434C257.063 102.434 258.165 102.099 259.41 101.428C260.751 100.853 261.996 100.087 263.146 99.1292C264.295 98.1714 265.253 97.2135 266.019 96.2557C266.881 95.202 267.312 94.2921 267.312 93.5258C267.312 92.8553 266.977 92.5201 266.307 92.5201C265.732 92.5201 264.966 93.0469 264.008 94.1005C263.146 95.1542 262.188 95.681 261.134 95.681C258.548 95.681 257.255 92.7116 257.255 86.773V50.7102ZM248.922 68.2388V81.457C248.922 83.8516 248.491 86.0067 247.629 87.9224C246.767 89.7423 245.617 91.3228 244.18 92.6638C242.839 93.909 241.355 94.8668 239.726 95.5373C238.194 96.2078 236.709 96.543 235.272 96.543C232.878 96.543 231.01 95.7768 229.669 94.2442C228.328 92.6159 227.658 90.4607 227.658 87.7788C227.658 81.457 232.543 75.4705 242.313 69.8192L246.623 67.3767C247.293 66.9936 247.772 66.802 248.06 66.802C248.634 66.802 248.922 67.2809 248.922 68.2388Z" fill="white"/>
<path d="M285.743 37.923C285.743 36.8694 285.695 36.0552 285.6 35.4805C285.6 34.81 285.36 34.4748 284.881 34.4748C284.402 34.4748 283.588 35.2411 282.439 36.7736C281.289 38.2104 279.469 39.7908 276.979 41.5149C275.925 42.2812 274.872 42.8559 273.818 43.2391C272.86 43.5264 272.381 44.1011 272.381 44.9632C272.381 45.6337 272.669 45.9689 273.243 45.9689C273.818 45.9689 274.441 46.0168 275.111 46.1126C275.878 46.2084 276.548 46.5436 277.123 47.1183C277.793 47.693 278.128 48.8424 278.128 50.5666V91.5143C278.128 93.43 277.745 94.771 276.979 95.5373C276.213 96.2078 275.351 96.6867 274.393 96.9741C273.435 97.2614 272.573 97.5009 271.807 97.6924C271.04 97.7882 270.657 98.2192 270.657 98.9855C270.657 99.656 270.801 100.087 271.088 100.279C271.471 100.374 272.046 100.422 272.812 100.422C273.866 100.422 275.159 100.327 276.692 100.135C278.32 99.9434 280.14 99.8476 282.151 99.8476C284.929 99.8476 287.084 99.9434 288.617 100.135C290.149 100.327 291.107 100.422 291.49 100.422C292.257 100.422 292.783 100.374 293.071 100.279C293.454 100.087 293.646 99.656 293.646 98.9855C293.646 98.2192 293.262 97.7882 292.496 97.6924C291.73 97.5009 290.868 97.3093 289.91 97.1177C288.952 96.8304 288.09 96.3515 287.324 95.681C286.557 94.9147 286.174 93.5258 286.174 91.5143V60.7676C286.174 54.0627 287.467 48.9861 290.054 45.5379C292.736 41.9939 295.944 40.2218 299.68 40.2218C304.182 40.2218 307.343 42.0896 309.163 45.8252C310.982 49.5608 311.892 55.1642 311.892 62.6354V91.5143C311.892 93.43 311.509 94.771 310.743 95.5373C310.073 96.2078 309.306 96.6867 308.444 96.9741C307.582 97.2614 306.768 97.5009 306.002 97.6924C305.331 97.7882 304.996 98.2192 304.996 98.9855C304.996 99.656 305.14 100.087 305.427 100.279C305.714 100.374 306.241 100.422 307.007 100.422C307.486 100.422 308.492 100.327 310.025 100.135C311.557 99.9434 313.617 99.8476 316.203 99.8476C318.502 99.8476 320.369 99.9434 321.806 100.135C323.243 100.327 324.296 100.422 324.967 100.422C325.733 100.422 326.26 100.374 326.547 100.279C326.835 100.087 326.978 99.656 326.978 98.9855C326.978 98.2192 326.595 97.7882 325.829 97.6924C325.159 97.5009 324.344 97.2614 323.387 96.9741C322.524 96.6867 321.71 96.2078 320.944 95.5373C320.274 94.771 319.938 93.43 319.938 91.5143L320.226 60.7676C320.321 53.7753 321.615 48.603 324.105 45.2505C326.691 41.8981 329.852 40.2218 333.588 40.2218C338.185 40.2218 341.346 42.0896 343.07 45.8252C344.89 49.5608 345.8 55.1642 345.8 62.6354V91.5143C345.8 93.43 345.417 94.771 344.651 95.5373C343.98 96.2078 343.166 96.6867 342.208 96.9741C341.346 97.2614 340.532 97.5009 339.766 97.6924C339.095 97.7882 338.76 98.2192 338.76 98.9855C338.76 99.656 338.904 100.087 339.191 100.279C339.574 100.374 340.149 100.422 340.915 100.422C341.873 100.422 343.07 100.327 344.507 100.135C346.04 99.9434 347.859 99.8476 349.967 99.8476C352.361 99.8476 354.277 99.9434 355.714 100.135C357.151 100.327 358.156 100.422 358.731 100.422C359.497 100.422 360.024 100.374 360.311 100.279C360.599 100.087 360.742 99.656 360.742 98.9855C360.742 98.2192 360.359 97.7882 359.593 97.6924C358.923 97.5009 358.156 97.3093 357.294 97.1177C356.432 96.8304 355.618 96.3515 354.852 95.681C354.181 94.9147 353.846 93.5258 353.846 91.5143V65.2215C353.846 62.7312 353.798 60.7676 353.702 59.3308C353.702 57.7983 353.702 56.7925 353.702 56.3136C353.702 49.6087 352.17 44.2927 349.105 40.3655C346.04 36.4384 342.017 34.4748 337.036 34.4748C333.683 34.4748 330.618 35.5763 327.841 37.7793C325.063 39.8866 322.285 43.1912 319.507 47.693H318.933C317.4 43.1912 315.389 39.8866 312.898 37.7793C310.408 35.5763 307.199 34.4748 303.272 34.4748C301.069 34.4748 299.057 34.9058 297.237 35.7679C295.418 36.6299 293.55 37.923 291.634 39.6471C289.814 41.2755 288.569 42.808 287.898 44.2448C287.228 45.5858 286.701 46.2563 286.318 46.2563C285.935 46.2563 285.743 45.7294 285.743 44.6758V37.923Z" fill="white"/>
<path d="M429.146 15.3658C428.38 12.8754 427.805 10.9118 427.422 9.47508C427.134 7.94253 426.464 7.17626 425.41 7.17626C424.644 7.17626 424.165 7.5115 423.974 8.18199C423.782 8.7567 423.495 9.57086 423.111 10.6245L401.991 81.1696C400.937 84.6179 400.027 87.4435 399.261 89.6466C398.591 91.7538 397.872 93.2864 397.106 94.2442C396.244 95.202 395.334 95.8246 394.376 96.112C393.418 96.3036 392.556 96.4951 391.79 96.6867C390.928 96.7825 390.257 96.9262 389.779 97.1177C389.204 97.3093 388.916 97.8361 388.916 98.6982C388.916 99.9434 389.683 100.566 391.215 100.566C392.46 100.566 393.849 100.422 395.382 100.135C397.01 99.7518 398.782 99.5602 400.698 99.5602C403.284 99.5602 405.487 99.7518 407.307 100.135C409.223 100.518 410.707 100.71 411.761 100.71C413.485 100.71 414.347 100.135 414.347 98.9855C414.347 97.9319 413.82 97.2135 412.767 96.8304C411.809 96.4472 410.276 96.112 408.169 95.8246C406.828 95.6331 405.775 95.2978 405.008 94.8189C404.338 94.2442 404.003 93.2385 404.003 91.8017C404.003 90.2691 404.338 88.3056 405.008 85.911L409.606 68.6698C409.797 67.9993 410.085 67.5204 410.468 67.233C410.851 66.8499 411.282 66.6583 411.761 66.6583H433.456C434.414 66.6583 435.037 67.233 435.324 68.3824L440.927 86.342C441.406 87.9703 441.694 89.4071 441.789 90.6523C441.981 91.8017 442.077 92.5201 442.077 92.8074C442.077 94.34 441.646 95.2499 440.784 95.5373C440.017 95.7289 438.676 95.9204 436.761 96.112C433.696 96.3036 432.163 97.1177 432.163 98.5545C432.163 99.3208 432.403 99.7997 432.881 99.9913C433.36 100.183 434.127 100.279 435.18 100.279C436.809 100.279 438.533 100.183 440.353 99.9913C442.173 99.7039 444.184 99.5602 446.387 99.5602C450.218 99.5602 453.236 99.7039 455.439 99.9913C457.642 100.279 459.126 100.422 459.893 100.422C461.808 100.422 462.766 99.7997 462.766 98.5545C462.766 97.9798 462.527 97.5967 462.048 97.4051C461.665 97.1177 461.186 96.9262 460.611 96.8304C460.036 96.7346 459.414 96.6388 458.743 96.543C458.073 96.4472 457.45 96.2557 456.875 95.9683C455.534 95.202 454.385 93.8132 453.427 91.8017C452.565 89.7902 451.559 86.9646 450.41 83.3248L429.146 15.3658ZM422.968 30.0208L432.594 59.6182C432.69 59.8097 432.738 60.145 432.738 60.6239C432.738 61.5817 432.211 62.0607 431.157 62.0607H413.485C412.623 62.0607 412.192 61.7254 412.192 61.0549C412.192 60.8634 412.288 60.4802 412.479 59.9055L421.244 29.8771C421.531 29.1109 421.818 28.7277 422.106 28.7277C422.393 28.7277 422.68 29.1588 422.968 30.0208Z" fill="white"/>
<path d="M477.275 4.01538C477.275 1.90812 476.94 0.854492 476.27 0.854492C475.791 0.854492 474.881 1.33341 473.54 2.29125C472.294 3.15331 470.427 4.01537 467.936 4.87743C466.404 5.35635 465.063 5.6916 463.913 5.88317C462.764 6.07474 462.189 6.69733 462.189 7.75096C462.189 8.61302 462.524 9.04405 463.195 9.04405C463.674 9.04405 464.009 9.04405 464.201 9.04405C464.488 8.94827 464.68 8.90037 464.775 8.90037C467.745 8.90037 469.229 11.0555 469.229 15.3658V91.5143C469.229 93.43 468.798 94.771 467.936 95.5373C467.074 96.2078 466.116 96.6867 465.063 96.9741C464.009 97.2614 463.051 97.5009 462.189 97.6924C461.327 97.7882 460.896 98.2192 460.896 98.9855C460.896 99.656 461.088 100.087 461.471 100.279C461.854 100.374 462.477 100.422 463.339 100.422C464.488 100.422 465.877 100.327 467.505 100.135C469.229 99.9434 471.145 99.8476 473.252 99.8476C475.647 99.8476 477.611 99.9434 479.143 100.135C480.676 100.327 481.825 100.422 482.591 100.422C483.358 100.422 483.884 100.374 484.172 100.279C484.555 100.087 484.746 99.656 484.746 98.9855C484.746 98.2192 484.363 97.7882 483.597 97.6924C482.831 97.5009 481.969 97.3093 481.011 97.1177C480.053 96.8304 479.191 96.3515 478.425 95.681C477.658 94.9147 477.275 93.5258 477.275 91.5143V4.01538Z" fill="white"/>
<path d="M529.034 50.7102C529.034 48.2198 528.938 45.9689 528.746 43.9574C528.555 41.946 528.028 40.2218 527.166 38.7851C526.304 37.3483 525.011 36.2468 523.286 35.4805C521.562 34.7142 519.216 34.3311 516.246 34.3311C512.511 34.3311 509.063 35.0495 505.902 36.4863C502.741 37.923 500.011 39.695 497.712 41.8023C495.413 43.9095 493.641 46.1126 492.396 48.4114C491.151 50.7102 490.528 52.7217 490.528 54.4458C490.528 55.2121 490.768 55.8347 491.247 56.3136C491.726 56.6967 492.3 56.8883 492.971 56.8883C495.653 56.8883 497.521 55.8826 498.574 53.8711C499.628 51.7639 500.681 49.2256 501.735 46.2563C502.597 43.8616 504.13 41.8023 506.333 40.0782C508.536 38.3541 510.882 37.492 513.373 37.492C516.342 37.492 518.258 38.4498 519.12 40.3655C520.078 42.2812 520.557 45.4421 520.557 49.8482V62.4917C515.672 65.2694 511.361 67.8556 507.626 70.2502C503.89 72.6448 500.729 74.9916 498.143 77.2904C495.653 79.4934 493.785 81.7922 492.54 84.1868C491.295 86.4857 490.672 88.9761 490.672 91.658C490.672 95.1063 491.63 97.884 493.546 99.9913C495.461 102.003 498.143 103.008 501.591 103.008C504.656 103.008 507.578 102.099 510.356 100.279C513.229 98.4587 516.486 96.0162 520.126 92.9511H520.7C521.562 96.3036 522.472 98.7461 523.43 100.279C524.484 101.715 525.968 102.434 527.884 102.434C528.842 102.434 529.944 102.099 531.189 101.428C532.53 100.853 533.775 100.087 534.924 99.1292C536.074 98.1714 537.032 97.2135 537.798 96.2557C538.66 95.202 539.091 94.2921 539.091 93.5258C539.091 92.8553 538.756 92.5201 538.085 92.5201C537.51 92.5201 536.744 93.0469 535.786 94.1005C534.924 95.1542 533.966 95.681 532.913 95.681C530.327 95.681 529.034 92.7116 529.034 86.773V50.7102ZM520.7 68.2388V81.457C520.7 83.8516 520.269 86.0067 519.407 87.9224C518.545 89.7423 517.396 91.3228 515.959 92.6638C514.618 93.909 513.133 94.8668 511.505 95.5373C509.972 96.2078 508.488 96.543 507.051 96.543C504.656 96.543 502.789 95.7768 501.448 94.2442C500.107 92.6159 499.436 90.4607 499.436 87.7788C499.436 81.457 504.321 75.4705 514.091 69.8192L518.401 67.3767C519.072 66.9936 519.551 66.802 519.838 66.802C520.413 66.802 520.7 67.2809 520.7 68.2388Z" fill="white"/>
<path d="M557.522 37.923C557.522 36.8694 557.474 36.0552 557.378 35.4805C557.378 34.81 557.139 34.4748 556.66 34.4748C556.181 34.4748 555.367 35.2411 554.217 36.7736C553.068 38.2104 551.248 39.7908 548.758 41.5149C547.704 42.2812 546.65 42.8559 545.597 43.2391C544.639 43.5264 544.16 44.1011 544.16 44.9632C544.16 45.5379 544.447 45.8731 545.022 45.9689C545.597 46.0647 546.219 46.1605 546.89 46.2563C547.656 46.352 548.327 46.6394 548.901 47.1183C549.572 47.5015 549.907 48.4114 549.907 49.8482V91.5143C549.907 93.43 549.524 94.771 548.758 95.5373C547.991 96.2078 547.129 96.6867 546.172 96.9741C545.214 97.2614 544.352 97.5009 543.585 97.6924C542.819 97.7882 542.436 98.2192 542.436 98.9855C542.436 99.656 542.58 100.087 542.867 100.279C543.25 100.374 543.825 100.422 544.591 100.422C545.932 100.422 547.369 100.327 548.901 100.135C550.434 99.9434 552.11 99.8476 553.93 99.8476C556.42 99.8476 558.432 99.9434 559.964 100.135C561.497 100.327 562.598 100.422 563.269 100.422C564.035 100.422 564.562 100.374 564.849 100.279C565.233 100.087 565.424 99.656 565.424 98.9855C565.424 98.2192 565.041 97.7882 564.275 97.6924C563.508 97.5009 562.646 97.3093 561.689 97.1177C560.731 96.8304 559.869 96.3515 559.102 95.681C558.336 94.9147 557.953 93.5258 557.953 91.5143V65.2215C557.953 56.8883 559.102 50.6623 561.401 46.5436C563.7 42.3291 567.436 40.2218 572.608 40.2218C577.589 40.2218 581.037 42.0896 582.953 45.8252C584.868 49.5608 585.826 55.1642 585.826 62.6354V91.5143C585.826 93.43 585.443 94.771 584.677 95.5373C583.911 96.2078 583.048 96.6867 582.091 96.9741C581.133 97.2614 580.271 97.5009 579.504 97.6924C578.738 97.7882 578.355 98.2192 578.355 98.9855C578.355 99.7518 578.547 100.183 578.93 100.279C579.313 100.374 579.935 100.422 580.798 100.422C581.851 100.422 583.096 100.327 584.533 100.135C586.066 99.9434 587.838 99.8476 589.849 99.8476C592.34 99.8476 594.351 99.9434 595.884 100.135C597.416 100.327 598.518 100.422 599.188 100.422C599.954 100.422 600.481 100.374 600.769 100.279C601.152 100.087 601.343 99.656 601.343 98.9855C601.343 98.2192 600.96 97.7882 600.194 97.6924C599.428 97.5009 598.566 97.3093 597.608 97.1177C596.65 96.8304 595.788 96.3515 595.021 95.681C594.255 94.9147 593.872 93.5258 593.872 91.5143V56.3136C593.872 49.6087 592.244 44.2927 588.987 40.3655C585.73 36.4384 581.42 34.4748 576.056 34.4748C573.757 34.4748 571.602 34.9058 569.591 35.7679C567.675 36.6299 565.759 37.923 563.844 39.6471C562.024 41.2755 560.683 42.808 559.821 44.2448C559.054 45.5858 558.48 46.2563 558.097 46.2563C557.713 46.2563 557.522 45.7294 557.522 44.6758V37.923Z" fill="white"/>
<path d="M656.28 20.9692C656.28 18.6704 656.424 17.0899 656.711 16.2279C657.095 15.27 658.196 14.5995 660.016 14.2164C660.878 14.0248 661.692 13.9291 662.458 13.9291C663.225 13.8333 663.895 13.7375 664.47 13.6417C665.045 13.5459 665.476 13.4022 665.763 13.2107C666.05 12.9233 666.194 12.4444 666.194 11.7739C666.194 10.4329 665.476 9.76243 664.039 9.76243C663.081 9.76243 661.549 9.954 659.441 10.3371C657.334 10.7203 654.556 10.9118 651.108 10.9118C647.947 10.9118 645.361 10.7203 643.35 10.3371C641.338 9.954 639.806 9.76243 638.752 9.76243C637.315 9.76243 636.597 10.4329 636.597 11.7739C636.597 12.5402 636.74 13.067 637.028 13.3543C637.411 13.5459 637.89 13.6896 638.465 13.7854C639.135 13.8812 639.853 13.9291 640.62 13.9291C641.482 13.9291 642.392 14.0727 643.35 14.3601C644.786 14.839 645.648 15.5095 645.936 16.3715C646.319 17.1378 646.51 18.6704 646.51 20.9692V86.773C646.51 88.3056 646.463 89.5987 646.367 90.6523C646.367 91.6101 646.223 92.4243 645.936 93.0948C645.648 93.6695 645.169 94.1484 644.499 94.5315C643.924 94.9147 643.062 95.2499 641.913 95.5373C641.242 95.7289 640.572 95.8246 639.901 95.8246C639.231 95.8246 638.608 95.8725 638.034 95.9683C637.555 96.0641 637.124 96.2557 636.74 96.543C636.453 96.8304 636.309 97.3093 636.309 97.9798C636.309 99.5123 637.315 100.279 639.327 100.279C640.284 100.279 641.769 100.183 643.781 99.9913C645.792 99.7039 648.33 99.5602 651.395 99.5602C654.46 99.5602 656.999 99.7039 659.01 99.9913C661.022 100.183 662.506 100.279 663.464 100.279C665.476 100.279 666.481 99.6081 666.481 98.2671C666.481 97.5009 666.29 96.9741 665.907 96.6867C665.524 96.3036 665.045 96.0641 664.47 95.9683C663.895 95.8725 663.225 95.8246 662.458 95.8246C661.692 95.8246 660.878 95.681 660.016 95.3936C659.058 95.1063 658.34 94.771 657.861 94.3879C657.382 94.0047 656.999 93.5258 656.711 92.9511C656.52 92.2806 656.376 91.4665 656.28 90.5086C656.28 89.5508 656.28 88.3056 656.28 86.773V55.5952C656.28 54.6374 656.376 54.0148 656.568 53.7274C656.855 53.3443 657.43 53.1527 658.292 53.1527H693.493C694.355 53.1527 694.881 53.3443 695.073 53.7274C695.265 54.0148 695.36 54.6374 695.36 55.5952V86.773C695.36 88.3056 695.313 89.5987 695.217 90.6523C695.217 91.6101 695.073 92.4243 694.786 93.0948C694.498 93.6695 694.019 94.1484 693.349 94.5315C692.774 94.9147 691.912 95.2499 690.763 95.5373C690.092 95.7289 689.422 95.8246 688.751 95.8246C688.081 95.8246 687.458 95.8725 686.883 95.9683C686.405 96.0641 685.974 96.2557 685.59 96.543C685.303 96.8304 685.159 97.3093 685.159 97.9798C685.159 99.5123 686.213 100.279 688.32 100.279C689.278 100.279 690.763 100.183 692.774 99.9913C694.786 99.7039 697.324 99.5602 700.389 99.5602C703.454 99.5602 705.992 99.7039 708.004 99.9913C710.015 100.183 711.5 100.279 712.458 100.279C714.469 100.279 715.475 99.6081 715.475 98.2671C715.475 97.5009 715.284 96.9741 714.9 96.6867C714.517 96.3036 714.038 96.0641 713.464 95.9683C712.889 95.8725 712.218 95.8246 711.452 95.8246C710.686 95.8246 709.872 95.681 709.01 95.3936C708.052 95.1063 707.333 94.771 706.855 94.3879C706.376 94.0047 705.992 93.5258 705.705 92.9511C705.514 92.2806 705.37 91.4665 705.274 90.5086C705.274 89.5508 705.274 88.3056 705.274 86.773V20.9692C705.274 18.6704 705.418 17.0899 705.705 16.2279C706.088 15.27 707.19 14.5995 709.01 14.2164C709.872 14.0248 710.686 13.9291 711.452 13.9291C712.218 13.8333 712.841 13.7375 713.32 13.6417C713.895 13.5459 714.326 13.4022 714.613 13.2107C714.9 12.9233 715.044 12.4444 715.044 11.7739C715.044 10.4329 714.374 9.76243 713.033 9.76243C712.075 9.76243 710.494 9.954 708.291 10.3371C706.184 10.7203 703.406 10.9118 699.958 10.9118C696.797 10.9118 694.211 10.7203 692.2 10.3371C690.284 9.954 688.799 9.76243 687.746 9.76243C686.309 9.76243 685.59 10.4329 685.59 11.7739C685.59 12.5402 685.734 13.067 686.021 13.3543C686.405 13.5459 686.883 13.6896 687.458 13.7854C688.129 13.8812 688.847 13.9291 689.613 13.9291C690.475 13.9291 691.385 14.0727 692.343 14.3601C693.78 14.839 694.642 15.5095 694.929 16.3715C695.217 17.1378 695.36 18.6704 695.36 20.9692V46.2563C695.36 47.2141 695.265 47.8846 695.073 48.2677C694.881 48.5551 694.355 48.6988 693.493 48.6988H658.292C657.43 48.6988 656.855 48.5551 656.568 48.2677C656.376 47.8846 656.28 47.2141 656.28 46.2563V20.9692Z" fill="white"/>
<path d="M760.123 50.7102C760.123 48.2198 760.027 45.9689 759.835 43.9574C759.644 41.946 759.117 40.2218 758.255 38.7851C757.393 37.3483 756.1 36.2468 754.376 35.4805C752.651 34.7142 750.305 34.3311 747.335 34.3311C743.6 34.3311 740.152 35.0495 736.991 36.4863C733.83 37.923 731.1 39.695 728.801 41.8023C726.502 43.9095 724.73 46.1126 723.485 48.4114C722.24 50.7102 721.617 52.7217 721.617 54.4458C721.617 55.2121 721.857 55.8347 722.336 56.3136C722.815 56.6967 723.389 56.8883 724.06 56.8883C726.742 56.8883 728.61 55.8826 729.663 53.8711C730.717 51.7639 731.77 49.2256 732.824 46.2563C733.686 43.8616 735.219 41.8023 737.422 40.0782C739.625 38.3541 741.971 37.492 744.462 37.492C747.431 37.492 749.347 38.4498 750.209 40.3655C751.167 42.2812 751.646 45.4421 751.646 49.8482V62.4917C746.761 65.2694 742.45 67.8556 738.715 70.2502C734.979 72.6448 731.818 74.9916 729.232 77.2904C726.742 79.4934 724.874 81.7922 723.629 84.1868C722.384 86.4857 721.761 88.9761 721.761 91.658C721.761 95.1063 722.719 97.884 724.635 99.9913C726.55 102.003 729.232 103.008 732.68 103.008C735.746 103.008 738.667 102.099 741.445 100.279C744.318 98.4587 747.575 96.0162 751.215 92.9511H751.789C752.651 96.3036 753.561 98.7461 754.519 100.279C755.573 101.715 757.058 102.434 758.973 102.434C759.931 102.434 761.033 102.099 762.278 101.428C763.619 100.853 764.864 100.087 766.013 99.1292C767.163 98.1714 768.121 97.2135 768.887 96.2557C769.749 95.202 770.18 94.2921 770.18 93.5258C770.18 92.8553 769.845 92.5201 769.174 92.5201C768.599 92.5201 767.833 93.0469 766.875 94.1005C766.013 95.1542 765.055 95.681 764.002 95.681C761.416 95.681 760.123 92.7116 760.123 86.773V50.7102ZM751.789 68.2388V81.457C751.789 83.8516 751.358 86.0067 750.496 87.9224C749.634 89.7423 748.485 91.3228 747.048 92.6638C745.707 93.909 744.222 94.8668 742.594 95.5373C741.062 96.2078 739.577 96.543 738.14 96.543C735.745 96.543 733.878 95.7768 732.537 94.2442C731.196 92.6159 730.525 90.4607 730.525 87.7788C730.525 81.457 735.41 75.4705 745.18 69.8192L749.491 67.3767C750.161 66.9936 750.64 66.802 750.927 66.802C751.502 66.802 751.789 67.2809 751.789 68.2388Z" fill="white"/>
<path d="M788.611 37.923C788.611 36.8694 788.563 36.0552 788.467 35.4805C788.467 34.81 788.228 34.4748 787.749 34.4748C787.174 34.4748 786.312 35.2411 785.163 36.7736C784.013 38.2104 782.337 39.695 780.134 41.2276C778.889 42.0896 777.739 42.7601 776.686 43.2391C775.728 43.6222 775.249 44.1969 775.249 44.9632C775.249 45.6337 775.536 45.9689 776.111 45.9689C776.686 45.9689 777.308 46.0168 777.979 46.1126C778.745 46.2084 779.416 46.5436 779.99 47.1183C780.661 47.693 780.996 48.8424 780.996 50.5666V88.6408C780.996 91.1312 780.805 92.999 780.421 94.2442C780.134 95.3936 779.368 96.2078 778.123 96.6867C776.494 97.2614 775.297 97.5488 774.531 97.5488C773.86 97.5488 773.525 98.0277 773.525 98.9855C773.525 99.656 773.669 100.087 773.956 100.279C774.339 100.374 774.914 100.422 775.68 100.422C776.829 100.422 778.17 100.327 779.703 100.135C781.331 99.9434 783.103 99.8476 785.019 99.8476C787.988 99.8476 790.527 99.9913 792.634 100.279C794.837 100.47 796.561 100.566 797.806 100.566C799.339 100.566 800.105 100.039 800.105 98.9855C800.105 98.315 799.913 97.9319 799.53 97.8361C799.243 97.6445 798.764 97.5488 798.094 97.5488C797.423 97.453 796.609 97.3572 795.651 97.2614C794.693 97.1656 793.592 96.8783 792.346 96.3993C790.91 95.8246 790 95.0105 789.617 93.9568C789.234 92.9032 789.042 91.1312 789.042 88.6408V64.9342C789.042 60.9113 789.329 57.463 789.904 54.5895C790.479 51.716 791.245 49.3692 792.203 47.5493C793.161 45.6337 794.166 44.2448 795.22 43.3827C796.369 42.5207 797.471 42.0896 798.525 42.0896C799.674 42.0896 800.632 42.377 801.398 42.9517C802.164 43.5264 802.883 44.1969 803.553 44.9632C804.32 45.6337 805.038 46.2563 805.708 46.831C806.475 47.4057 807.337 47.693 808.295 47.693C809.54 47.693 810.641 47.1183 811.599 45.9689C812.653 44.7237 813.18 43.1433 813.18 41.2276C813.18 39.3119 812.509 37.7314 811.168 36.4863C809.827 35.1453 807.959 34.4748 805.565 34.4748C801.063 34.4748 796.8 37.2046 792.778 42.6643L790.191 46.3999C789.808 46.8789 789.473 47.1183 789.186 47.1183C788.802 47.1183 788.611 46.7831 788.611 46.1126V37.923Z" fill="white"/>
<path d="M833.089 37.923C833.089 36.8694 833.041 36.0552 832.945 35.4805C832.945 34.81 832.706 34.4748 832.227 34.4748C831.652 34.4748 830.79 35.2411 829.641 36.7736C828.491 38.2104 826.815 39.695 824.612 41.2276C823.367 42.0896 822.217 42.7601 821.164 43.2391C820.206 43.6222 819.727 44.1969 819.727 44.9632C819.727 45.6337 820.014 45.9689 820.589 45.9689C821.164 45.9689 821.786 46.0168 822.457 46.1126C823.223 46.2084 823.894 46.5436 824.468 47.1183C825.139 47.693 825.474 48.8424 825.474 50.5666V88.6408C825.474 91.1312 825.282 92.999 824.899 94.2442C824.612 95.3936 823.846 96.2078 822.601 96.6867C820.972 97.2614 819.775 97.5488 819.009 97.5488C818.338 97.5488 818.003 98.0277 818.003 98.9855C818.003 99.656 818.147 100.087 818.434 100.279C818.817 100.374 819.392 100.422 820.158 100.422C821.307 100.422 822.648 100.327 824.181 100.135C825.809 99.9434 827.581 99.8476 829.497 99.8476C832.466 99.8476 835.005 99.9913 837.112 100.279C839.315 100.47 841.039 100.566 842.284 100.566C843.817 100.566 844.583 100.039 844.583 98.9855C844.583 98.315 844.391 97.9319 844.008 97.8361C843.721 97.6445 843.242 97.5488 842.572 97.5488C841.901 97.453 841.087 97.3572 840.129 97.2614C839.171 97.1656 838.07 96.8783 836.824 96.3993C835.388 95.8246 834.478 95.0105 834.095 93.9568C833.711 92.9032 833.52 91.1312 833.52 88.6408V64.9342C833.52 60.9113 833.807 57.463 834.382 54.5895C834.957 51.716 835.723 49.3692 836.681 47.5493C837.639 45.6337 838.644 44.2448 839.698 43.3827C840.847 42.5207 841.949 42.0896 843.003 42.0896C844.152 42.0896 845.11 42.377 845.876 42.9517C846.642 43.5264 847.361 44.1969 848.031 44.9632C848.798 45.6337 849.516 46.2563 850.186 46.831C850.953 47.4057 851.815 47.693 852.773 47.693C854.018 47.693 855.119 47.1183 856.077 45.9689C857.131 44.7237 857.658 43.1433 857.658 41.2276C857.658 39.3119 856.987 37.7314 855.646 36.4863C854.305 35.1453 852.437 34.4748 850.043 34.4748C845.541 34.4748 841.278 37.2046 837.255 42.6643L834.669 46.3999C834.286 46.8789 833.951 47.1183 833.664 47.1183C833.28 47.1183 833.089 46.7831 833.089 46.1126V37.923Z" fill="white"/>
<path d="M871.453 9.76243C870.112 9.76243 868.915 10.4808 867.861 11.9176C866.903 13.3543 866.424 15.0306 866.424 16.9463C866.424 18.8619 866.903 20.4903 867.861 21.8313C868.915 23.1722 870.112 23.8427 871.453 23.8427C872.89 23.8427 874.087 23.1722 875.045 21.8313C876.098 20.3945 876.625 18.7662 876.625 16.9463C876.625 15.0306 876.098 13.3543 875.045 11.9176C873.991 10.4808 872.794 9.76243 871.453 9.76243ZM875.907 37.923C875.907 36.8694 875.859 36.151 875.763 35.7679C875.667 35.289 875.38 35.0495 874.901 35.0495C874.326 35.0495 873.369 35.6721 872.028 36.9173C870.687 38.1625 868.675 39.5514 865.993 41.0839C864.748 42.1375 863.551 42.8559 862.401 43.2391C861.348 43.6222 860.821 44.2927 860.821 45.2505C860.821 45.921 861.06 46.352 861.539 46.5436C862.018 46.6394 862.641 46.6873 863.407 46.6873C866.376 46.6873 867.861 48.4593 867.861 52.0033V91.5143C867.861 93.43 867.382 94.771 866.424 95.5373C865.562 96.3036 864.604 96.8304 863.551 97.1177C862.497 97.3093 861.491 97.5009 860.533 97.6924C859.671 97.7882 859.24 98.2192 859.24 98.9855C859.24 99.656 859.432 100.087 859.815 100.279C860.294 100.374 860.917 100.422 861.683 100.422C862.736 100.422 864.077 100.327 865.706 100.135C867.43 99.9434 869.393 99.8476 871.596 99.8476C874.374 99.8476 876.577 99.9434 878.206 100.135C879.93 100.327 881.079 100.422 881.654 100.422C882.42 100.422 882.947 100.374 883.234 100.279C883.617 100.183 883.809 99.7518 883.809 98.9855C883.809 98.2192 883.378 97.7882 882.516 97.6924C881.75 97.5009 880.84 97.3093 879.786 97.1177C878.828 96.8304 877.918 96.3515 877.056 95.681C876.29 94.9147 875.907 93.5258 875.907 91.5143V37.923Z" fill="white"/>
<path d="M911.129 34.4748C904.903 34.4748 900.066 36.1989 896.617 39.6471C893.169 43.0954 891.445 47.5493 891.445 53.009C891.445 57.2236 892.69 60.6239 895.181 63.2101C897.767 65.7963 901.694 68.3345 906.962 70.8249C911.272 72.8364 914.481 74.9437 916.589 77.1467C918.696 79.254 919.749 82.2233 919.749 86.0546C919.749 90.3649 918.504 93.8611 916.014 96.543C913.619 99.1292 910.41 100.422 906.387 100.422C902.843 100.422 900.209 99.5602 898.485 97.8361C896.857 96.0162 895.564 93.3821 894.606 89.9339C893.744 86.5815 893.169 84.1868 892.882 82.7501C892.69 81.2175 892.164 80.4513 891.301 80.4513C890.248 80.4513 889.721 81.2654 889.721 82.8938C889.721 86.2462 889.673 88.9761 889.577 91.0833C889.482 93.0948 889.434 94.4837 889.434 95.2499C889.434 96.3993 889.913 97.453 890.87 98.4108C891.828 99.2729 893.026 100.039 894.462 100.71C895.995 101.476 897.671 102.051 899.491 102.434C901.407 102.817 903.322 103.008 905.238 103.008C912.039 103.008 917.307 101.045 921.042 97.1177C924.778 93.1906 926.646 87.8266 926.646 81.026C926.646 78.0566 926.215 75.6141 925.353 73.6985C924.587 71.687 923.485 69.9629 922.048 68.5261C920.611 67.0893 918.887 65.7963 916.876 64.6468C914.864 63.4974 912.613 62.3001 910.123 61.0549C906.292 59.1392 903.418 57.2715 901.502 55.4516C899.587 53.5359 898.629 50.9018 898.629 47.5493C898.629 44.3885 899.587 41.8502 901.502 39.9345C903.418 37.923 905.765 36.9173 908.543 36.9173C910.554 36.9173 912.47 37.4441 914.29 38.4977C916.11 39.5514 917.642 41.1318 918.887 43.2391C920.133 45.3463 920.803 47.0225 920.899 48.2677C920.995 49.4171 921.474 49.9918 922.336 49.9918C923.198 49.9918 923.629 49.034 923.629 47.1183V41.2276C923.629 40.2697 923.533 39.4077 923.341 38.6414C923.15 37.7793 922.623 37.061 921.761 36.4863C920.995 35.8158 919.749 35.3368 918.025 35.0495C916.397 34.6664 914.098 34.4748 911.129 34.4748Z" fill="white"/>
</g>
<defs>
<clipPath id="clip0">
<rect width="926.646" height="102.154" fill="white" transform="translate(0 0.854492)"/>
</clipPath>
</defs>
</svg>
